<svg width="186" height="40" viewBox="0 0 186 40" fill="none" xmlns="http://www.w3.org/2000/svg">
<g clip-path="url(#clip0_4296_47422)">
<path d="M91.588 11.3014H91.5127V29.0085H91.588V11.3014Z" fill="white"/>
<path d="M104.397 11.8288V13.0344H98.7462V19.3637H103.945V20.5693H98.7462V28.6317H97.2393V11.8288H104.397Z" fill="white"/>
<path d="M114.118 11.8288V13.0344H107.939V19.3637H113.817V20.5693H107.939V27.3508H114.269V28.6317H106.508V11.8288H114.118Z" fill="white"/>
<path d="M121.201 11.8288C123.838 11.8288 124.818 13.0344 124.818 16.1237C124.818 19.213 122.934 20.7954 120.221 20.7954H117.961V28.6317H116.529V11.8288H121.201ZM118.036 19.5144H119.694C122.105 19.5144 123.311 19.213 123.311 16.1237C123.311 13.0344 122.557 13.0344 120.523 13.0344H118.036V19.5144Z" fill="white"/>
<path d="M132.352 11.8288L136.345 26.8233L140.49 11.8288H141.921L137.25 28.6317H135.441L130.77 11.8288H132.352Z" fill="white"/>
<path d="M145.011 16.8773H143.654V28.6318H145.011V16.8773Z" fill="white"/>
<path d="M145.162 11.8288H143.504V13.5618H145.162V11.8288Z" fill="white"/>
<path d="M154.806 20.0419H153.45V19.8912C153.45 18.4596 152.772 17.7814 151.491 17.7814C150.21 17.7814 149.607 18.3842 149.607 19.5145C149.607 20.6447 150.361 21.0968 151.491 21.6996L152.922 22.4531C154.203 23.1312 154.882 23.9601 154.882 25.4671C154.882 27.6522 153.676 28.8578 151.34 28.8578C149.004 28.8578 147.874 27.7275 147.874 25.3917V25.0903H149.306C149.306 27.2001 150.059 27.7275 151.415 27.7275C152.772 27.7275 153.45 26.9741 153.45 25.6931C153.45 24.4122 152.922 23.9601 151.641 23.2819L150.436 22.6791C149.23 22.0763 148.175 21.0215 148.175 19.4391C148.175 17.8568 149.381 16.5005 151.491 16.5005C153.601 16.5005 154.731 17.4047 154.731 19.8159" fill="white"/>
<path d="M159.177 16.8773H157.82V28.6318H159.177V16.8773Z" fill="white"/>
<path d="M159.327 11.8288H157.669V13.5618H159.327V11.8288Z" fill="white"/>
<path d="M170.328 21.3982V23.9601C170.328 27.5015 169.047 28.9332 166.184 28.9332C163.321 28.9332 162.19 27.5015 162.19 24.1108V21.6243C162.19 18.3089 163.396 16.5759 166.41 16.5759C169.424 16.5759 170.328 18.1582 170.328 21.3982ZM168.897 21.5489C168.897 18.9117 168.143 17.7815 166.335 17.7815C164.526 17.7815 163.622 19.9666 163.622 22.001V23.6587C163.622 25.6931 163.773 27.8783 166.335 27.8783C168.897 27.8783 168.897 25.8438 168.897 23.6587V21.5489Z" fill="white"/>
<path d="M180.349 20.4187V28.5564H178.918V20.4941C178.918 18.9117 178.315 17.8568 176.883 17.8568C175.452 17.8568 174.246 19.4392 174.246 21.8504V28.5564H172.89V16.8773H174.171V18.535C174.773 17.4047 175.828 16.8019 177.185 16.8019C179.294 16.8019 180.425 18.0829 180.425 20.4941" fill="white"/>
<path d="M183.59 15.8224C182.309 15.8224 181.179 14.7675 181.179 13.4112C181.179 12.0549 182.234 11 183.59 11C184.946 11 186.001 12.1302 186.001 13.4112C186.001 14.6921 184.946 15.8224 183.59 15.8224ZM185.7 13.4112C185.7 12.2809 184.795 11.3014 183.59 11.3014C182.384 11.3014 181.48 12.2809 181.48 13.4112C181.48 14.5414 182.384 15.521 183.59 15.521C184.795 15.521 185.7 14.5414 185.7 13.4112ZM183.665 12.0549C184.193 12.0549 184.494 12.2809 184.494 12.733C184.494 13.1851 184.268 13.2605 184.042 13.3358C184.343 13.3358 184.419 13.4865 184.494 14.014C184.494 14.24 184.494 14.4661 184.645 14.6168H184.268C184.117 14.3154 184.193 13.9386 184.117 13.7126C184.117 13.5619 183.967 13.4112 183.59 13.4112H183.138V14.5414H182.761V12.0549H183.665ZM183.062 13.1851H183.665C184.042 13.1851 184.193 13.0344 184.193 12.8084C184.193 12.5823 184.042 12.4316 183.741 12.4316H183.138V13.2605L183.062 13.1851Z" fill="white"/>
<path d="M37.4336 18.7761V11.8364H40.0558C41.3066 11.7535 42.5574 12.2809 42.5574 13.6523C42.5574 14.4209 42.0299 14.9408 41.3442 15.1819C42.2333 15.3853 42.8738 15.9881 42.8738 16.9978C42.8738 18.3692 41.1408 18.8966 40.0934 18.8137H37.4336V18.7761ZM40.101 14.6168C40.749 14.6168 41.0654 14.3757 41.0654 13.8105C41.0654 13.2454 40.7038 13.0043 40.101 13.0043H38.933V14.662H40.101V14.6243V14.6168ZM40.101 17.6006C40.7866 17.6006 41.2689 17.4801 41.2689 16.6738C41.2689 15.8676 40.7866 15.747 40.101 15.747H38.933V17.6006H40.101ZM45.2624 11.8364V18.7761H43.8082V11.8364H45.2624ZM49.6628 18.1657C49.3388 18.6103 48.8942 18.8891 48.1709 18.8891C47.6886 18.8891 46.7618 18.5274 46.5961 17.8417C46.5132 17.5629 46.5132 17.2389 46.5132 17.0732V13.9311H47.9674V16.8321C47.9674 17.3595 48.1257 17.9623 48.8114 17.9623C49.2559 17.9623 49.6553 17.5554 49.6553 16.8321V13.9311H51.1095V17.8869C51.1095 18.1657 51.1472 18.4521 51.1472 18.7309H49.6929L49.6553 18.1657H49.6628ZM53.6563 16.7567C53.6563 17.4047 53.7392 17.9698 54.5002 17.9698C54.9825 17.9698 55.2688 17.7664 55.3894 17.3218H56.6778C56.5573 18.5349 55.6305 18.8966 54.5002 18.8966C52.8425 18.8966 52.1569 17.9698 52.1569 16.3574C52.1569 14.9031 53.0008 13.7729 54.5002 13.7729C55.3894 13.7729 56.1579 14.0969 56.5573 14.9408C56.6778 15.2196 56.7607 15.5059 56.7984 15.7847C56.8361 16.0635 56.8361 16.3875 56.8361 16.7115H53.6488V16.7492L53.6563 16.7567ZM55.3517 15.7922C55.3517 15.2648 55.1934 14.7825 54.5078 14.7825C53.8598 14.7825 53.7015 15.2648 53.6639 15.7922H55.3592H55.3517ZM61.7262 14.0517C61.7262 13.3283 61.2817 12.718 60.3926 12.718C59.3452 12.718 59.0589 14.2928 59.0589 15.2573C59.0589 16.2217 59.3377 17.7965 60.3926 17.7965C61.2817 17.7965 61.7262 17.1937 61.7262 16.4628H63.301C63.2182 18.1959 61.9674 18.8439 60.4001 18.8439C58.3807 18.8439 57.4991 17.2691 57.4991 15.212C57.4991 13.155 58.3883 11.5802 60.4001 11.5802C62.0126 11.5802 63.2634 12.2282 63.301 13.9612H61.7262V14.0441V14.0517ZM65.3958 13.9311L65.4334 14.8202C65.7574 14.0517 66.3602 13.8558 67.0911 13.8934V15.1819H66.4431C66.202 15.1819 65.878 15.3401 65.7574 15.5436C65.5992 15.8224 65.554 16.071 65.554 16.3875V18.7685H64.0997V14.8956C64.0997 14.6921 64.0621 14.2928 64.0621 13.9311H65.3958ZM70.2332 18.9343C68.6584 18.9343 67.6939 17.8869 67.6939 16.3498C67.6939 14.8127 68.6207 13.7653 70.2332 13.7653C71.8457 13.7653 72.7725 14.8127 72.7725 16.3498C72.7725 17.8869 71.808 18.9343 70.2332 18.9343ZM70.2332 17.9698C71.1223 17.9698 71.2805 17.1259 71.2805 16.3574C71.2805 15.5888 71.1223 14.7449 70.2332 14.7449C69.3441 14.7449 69.1858 15.5888 69.1858 16.3574C69.2235 17.1259 69.3441 17.9698 70.2332 17.9698ZM76.2461 15.2271C76.2461 14.9031 75.9221 14.7449 75.5981 14.7449C75.1912 14.7449 75.0329 14.8654 75.0329 15.1894C75.0329 15.958 77.8133 15.5134 77.8133 17.3294C77.8133 18.3767 76.5249 18.9042 75.6357 18.9042C74.5055 18.9042 73.541 18.4596 73.4958 17.3746H74.8295C74.8672 17.7362 75.1912 17.9774 75.6357 17.9774C76.0426 17.9774 76.3214 17.8191 76.3214 17.4499C76.3214 17.043 75.6357 16.8848 75.3569 16.8471C74.4302 16.6437 73.5787 16.4026 73.5787 15.3175C73.5787 14.3078 74.7918 13.8633 75.6357 13.8633C76.6454 13.8633 77.5345 14.225 77.5722 15.3175H76.2385V15.2346L76.2461 15.2271ZM81.0458 15.2271C81.0458 14.9031 80.7218 14.7449 80.3978 14.7449C79.9909 14.7449 79.8327 14.8654 79.8327 15.1894C79.8327 15.958 82.6131 15.5134 82.6131 17.3294C82.6131 18.3767 81.3246 18.9042 80.4355 18.9042C79.3053 18.9042 78.3408 18.4596 78.2956 17.3746H79.6293C79.6669 17.7362 79.9909 17.9774 80.4355 17.9774C80.8424 17.9774 81.1212 17.8191 81.1212 17.4499C81.1212 17.043 80.4355 16.8848 80.1567 16.8471C79.2299 16.6437 78.3785 16.4026 78.3785 15.3175C78.3785 14.3078 79.5916 13.8633 80.4355 13.8633C81.4452 13.8633 82.3343 14.225 82.372 15.3175H81.0383V15.2346L81.0458 15.2271ZM37.4336 28.2173V21.2777H40.0558C41.3066 21.1948 42.5574 21.7222 42.5574 23.0936C42.5574 23.8622 42.0299 24.3821 41.3442 24.6232C42.2333 24.8266 42.8738 25.4294 42.8738 26.4391C42.8738 27.8105 41.1408 28.3379 40.0934 28.255H37.4336V28.2173ZM40.101 24.0581C40.749 24.0581 41.0654 23.8169 41.0654 23.2518C41.0654 22.6867 40.7038 22.4456 40.101 22.4456H38.933V24.1033L40.101 24.0656V24.0581ZM40.101 27.0419C40.7866 27.0419 41.2689 26.9213 41.2689 26.1151C41.2689 25.3089 40.7866 25.1883 40.101 25.1883H38.933V27.0419H40.101ZM45.2624 21.2777V28.2173H43.8082V21.2777H45.2624ZM49.6628 27.607C49.3388 28.0516 48.8942 28.3304 48.1709 28.3304C47.6886 28.3304 46.7618 27.9687 46.5961 27.2378C46.5132 26.959 46.5132 26.635 46.5132 26.4692V23.3196H47.9674V26.2658C47.9674 26.7932 48.1257 27.396 48.8114 27.396C49.2559 27.396 49.6553 26.9892 49.6553 26.2658V23.3648H51.1095V27.3207C51.1095 27.5995 51.1472 27.8858 51.1472 28.1646H49.6929L49.6553 27.5995L49.6628 27.607ZM53.6563 26.198C53.6563 26.846 53.7392 27.4111 54.5002 27.4111C54.9825 27.4111 55.2688 27.2077 55.3894 26.7631H56.6778C56.5573 27.9762 55.6305 28.3379 54.5002 28.3379C52.8425 28.3379 52.1569 27.4111 52.1569 25.7986C52.1569 24.3444 53.0008 23.2141 54.5002 23.2141C55.3894 23.2141 56.1579 23.5381 56.5573 24.3821C56.6778 24.6609 56.7607 24.9472 56.7984 25.226C56.8361 25.5048 56.8361 25.8288 56.8361 26.1528L53.6488 26.1904L53.6563 26.198ZM55.3517 25.226C55.3517 24.6985 55.1934 24.2163 54.5078 24.2163C53.8598 24.2163 53.7015 24.6985 53.6639 25.226H55.3592H55.3517ZM61.5228 23.2518C61.4851 22.5661 61.0782 22.2045 60.3549 22.2045C59.7898 22.2045 59.2623 22.4833 59.2623 23.0936C59.2623 23.8622 59.948 23.9375 60.5508 24.0581C61.5981 24.3369 63.1729 24.6232 63.1729 26.0322C63.1729 27.7653 61.681 28.3756 60.1891 28.3756C58.6143 28.3756 57.4841 27.7728 57.5293 25.9945H59.0589C59.0212 26.7631 59.4658 27.283 60.2268 27.283C60.8296 27.283 61.5981 27.0796 61.5981 26.3562C61.5981 25.55 60.5885 25.4671 60.0233 25.3089C59.0589 25.0677 57.7252 24.6232 57.7252 23.3724C57.7252 21.7976 59.1794 21.0742 60.6261 21.0742C61.9598 21.0742 63.0072 21.7976 63.0072 23.2141L61.5153 23.2518H61.5228ZM64.1826 28.2173V21.2777H65.6369V23.9827C65.9157 23.5381 66.4054 23.2594 67.1288 23.2594C67.611 23.2594 68.5378 23.621 68.7036 24.3067C68.7865 24.5855 68.7865 24.9095 68.7865 25.0753V28.2249H67.3774V25.3239C67.3774 24.7965 67.2192 24.2314 66.5335 24.2314C66.089 24.2314 65.6896 24.6383 65.6896 25.3239V28.2249H64.1977L64.1826 28.2173ZM71.5669 21.2777V22.5285H70.0373V21.2777H71.5669ZM71.484 23.3724V28.2098H70.0297V23.3724H71.484ZM74.0233 26.198C74.0233 26.846 74.1061 27.4111 74.8672 27.4111C75.3494 27.4111 75.6357 27.2077 75.7563 26.7631H77.0448C76.9242 27.9762 75.9974 28.3379 74.8672 28.3379C73.2095 28.3379 72.5238 27.4111 72.5238 25.7986C72.5238 24.3444 73.3677 23.2141 74.8672 23.2141C75.7563 23.2141 76.5249 23.5381 76.9242 24.3821C77.0448 24.6609 77.1277 24.9472 77.1653 25.226C77.203 25.5048 77.203 25.8288 77.203 26.1528L74.0157 26.1904L74.0233 26.198ZM75.681 25.226C75.681 24.6985 75.5227 24.2163 74.837 24.2163C74.189 24.2163 74.0308 24.6985 73.9931 25.226H75.6885H75.681ZM79.5162 21.2777V28.2173H78.062V21.2777H79.5162ZM84.1125 21.2777H85.5668V27.2905C85.5668 27.6146 85.6045 27.9386 85.6045 28.255H84.1502C84.1502 28.0139 84.1125 27.8105 84.1125 27.5693C83.7885 28.1345 83.2686 28.4133 82.6206 28.4133C81.2116 28.4133 80.5259 27.0796 80.5259 25.8288C80.5259 24.578 81.2945 23.2443 82.7864 23.2443C83.2686 23.2443 83.7961 23.5231 84.0749 23.93L84.1125 21.2701V21.2777ZM83.0652 27.4036C83.8338 27.4036 84.1125 26.4768 84.1125 25.7911C84.1125 25.1431 83.8714 24.1786 83.0652 24.1786C82.1384 24.1786 82.0178 25.0225 82.0178 25.7911C82.0178 26.5144 82.1384 27.4036 83.0652 27.4036ZM83.3063 18.7761C83.0652 18.7761 82.8617 18.5726 82.8617 18.3315C82.8617 18.0904 83.0652 17.8869 83.3063 17.8869C83.5474 17.8869 83.7509 18.0904 83.7509 18.3315C83.7509 18.5726 83.5926 18.7761 83.3063 18.7761ZM83.3063 17.7664C83.0275 17.7664 82.7789 18.0075 82.7789 18.2938C82.7789 18.5802 83.02 18.8213 83.3063 18.8213C83.5926 18.8213 83.8338 18.5802 83.8338 18.2938C83.8338 18.0075 83.5926 17.7664 83.3063 17.7664Z" fill="white"/>
<path d="M83.306 18.2863H83.1854V18.0829H83.3437C83.4265 18.0829 83.5019 18.0829 83.5019 18.1657C83.5019 18.2863 83.3813 18.2863 83.2984 18.2863M83.5848 18.1657C83.5848 18.0452 83.5471 18.0075 83.3813 18.0075H83.1025V18.6103H83.1854V18.3315H83.306L83.5094 18.6103H83.5923L83.4341 18.3315C83.517 18.3315 83.5923 18.2938 83.5923 18.1733M86.4104 28.1721C86.1693 28.1721 85.9658 27.9687 85.9658 27.7276C85.9658 27.4865 86.1693 27.283 86.4104 27.283C86.6515 27.283 86.8549 27.4865 86.8549 27.7276C86.8549 27.9687 86.6515 28.1721 86.4104 28.1721ZM86.4104 27.1625C86.1316 27.1625 85.8829 27.4036 85.8829 27.6899C85.8829 27.9762 86.124 28.2174 86.4104 28.2174C86.6967 28.2174 86.9378 27.9762 86.9378 27.6899C86.9378 27.4036 86.6967 27.1625 86.4104 27.1625Z" fill="white"/>
<path d="M86.3731 27.6899H86.2525V27.4865H86.4108C86.4936 27.4865 86.569 27.4865 86.569 27.5694C86.569 27.6899 86.4861 27.6899 86.3655 27.6899M86.6971 27.5694C86.6971 27.4488 86.6594 27.4111 86.4936 27.4111H86.2148V28.0139H86.2977V27.7351H86.4183L86.5765 28.0139H86.6594L86.5012 27.7351C86.6217 27.7351 86.7046 27.6975 86.7046 27.5769" fill="white"/>
<path d="M15.4922 26.4391C14.9648 26.4391 14.5654 26.846 14.5654 27.3659C14.5654 27.8858 14.9723 28.2927 15.4922 28.2927C15.9745 28.2927 16.419 27.8858 16.419 27.3659C16.419 26.846 16.0121 26.4391 15.4922 26.4391ZM15.4922 28.1344C15.0477 28.1344 14.7237 27.8104 14.7237 27.3659C14.7237 26.9213 15.0477 26.5973 15.4922 26.5973C15.9368 26.5973 16.2608 26.9213 16.2608 27.3659C16.2608 27.8104 15.982 28.1344 15.4922 28.1344Z" fill="white"/>
<path d="M15.9749 27.1248C15.9749 26.9213 15.892 26.846 15.6132 26.846H15.1687V27.8934H15.2892V27.4488H15.5304L15.8091 27.8934H15.9674L15.6434 27.4488C15.8468 27.4111 15.9674 27.3282 15.9674 27.1248H15.9749ZM15.4927 27.283H15.2892V26.959H15.568C15.6886 26.959 15.8091 26.959 15.8091 27.1173C15.8468 27.3207 15.6057 27.2755 15.4851 27.2755L15.4927 27.283ZM8.22899 21.1948C8.20388 21.1948 8.17625 21.2074 8.14611 21.2325L6.61652 23.5758C7.09875 23.7793 7.6262 23.8998 8.19132 23.8998C8.75644 23.8998 9.28389 23.7793 9.76612 23.5758L8.23653 21.2325C8.2742 21.1948 8.23653 21.1948 8.23653 21.1948H8.22899ZM6.73707 19.2583L4.43892 19.0549C4.35603 19.3337 4.31836 19.6577 4.31836 19.9817C4.31836 20.9461 4.68004 21.8353 5.24516 22.5209L6.85763 19.4542C6.94052 19.3713 6.89531 19.296 6.73707 19.2508V19.2583Z" fill="white"/>
<path d="M11.86 16.3121V11.7535H4.55864V16.3121H0V23.6135H4.55864V28.1721H11.86V23.6135H16.4186V16.3121H11.86ZM8.22815 15.4682C10.0441 15.4682 11.6189 16.5156 12.3046 18.0904H9.0796C8.63504 18.0904 8.4316 17.8116 8.39392 17.6081C8.39392 17.367 8.4316 17.2841 8.63504 17.0053C8.87616 16.6813 8.71793 16.1162 8.19048 16.0785C7.66303 16.0785 7.5048 16.6813 7.74592 17.0053C7.94936 17.2841 7.98704 17.367 7.98704 17.6081C7.98704 17.8116 7.78359 18.0904 7.30136 18.0904H4.0764C4.84497 16.5608 6.41977 15.4682 8.22815 15.4682ZM3.71473 19.9816C3.71473 19.4165 3.83528 18.8891 3.99352 18.4068L7.02256 18.6856C7.58768 18.7685 7.67057 19.3336 7.5048 19.6501L5.44776 23.5607C4.4004 22.7168 3.71473 21.4208 3.71473 19.9741V19.9816ZM10.6921 23.7792C9.96873 24.2615 9.11728 24.5026 8.19048 24.5026C7.26368 24.5026 6.41223 24.2238 5.68888 23.7792L7.90415 20.5091C8.06239 20.268 8.31104 20.3056 8.46927 20.5091L10.6845 23.7792H10.6921ZM11.0161 23.5306L8.95904 19.6576C8.80081 19.3336 8.87616 18.7685 9.44128 18.6932L12.4703 18.4144C12.6738 18.8966 12.7491 19.4617 12.7491 19.9892C12.7491 21.4434 12.0634 22.7319 11.0161 23.5381V23.5306Z" fill="white"/>
<path d="M11.1739 17.4424C10.6916 16.8773 10.0436 16.4327 9.32026 16.2292C9.56137 16.5909 9.35793 17.1184 9.16202 17.3595C9.12435 17.3972 9.16202 17.4424 9.16202 17.4424H11.1814H11.1739ZM9.71961 19.2583C9.56137 19.2583 9.56137 19.3412 9.59905 19.4165L11.2115 22.4832C11.7766 21.7976 12.1383 20.9084 12.1383 19.944C12.1383 19.62 12.1006 19.296 12.0178 19.0172L9.71961 19.2583ZM7.14266 16.2745C6.4193 16.4779 5.7713 16.9225 5.28906 17.4876H7.30843C7.3461 17.4876 7.3461 17.4499 7.30843 17.4047C7.10498 17.1259 6.90154 16.6361 7.15019 16.2745H7.14266Z" fill="white"/>
<path d="M31.1052 11.7535C29.3269 12.6427 27.5562 13.1249 25.4992 13.1249C23.4422 13.1249 21.6639 12.6427 19.8932 11.7535C18.7253 14.0517 18.5595 17.7664 19.5692 20.8708C20.5337 23.8547 22.4325 26.5974 25.4992 28.2927C28.6036 26.5974 30.4647 23.8547 31.4292 20.8708C32.4765 17.7664 32.2731 14.0517 31.1052 11.7535ZM30.2989 20.5091C29.4098 23.0484 28.0837 25.3089 25.5369 26.8837C22.9976 25.3089 21.6262 23.0484 20.7748 20.5091C20.0062 18.2487 19.8103 15.5888 20.6542 13.5318C21.9427 13.9763 22.6736 14.0969 23.3593 14.2175C24.0073 14.338 24.5724 14.3757 25.5369 14.3757C26.5013 14.3757 27.0665 14.2928 27.7145 14.2175C28.4001 14.0969 29.1687 13.9763 30.4195 13.5318C31.2257 15.5888 31.0675 18.2487 30.2989 20.5091Z" fill="white"/>
<path d="M27.7141 14.7826C26.9908 14.8655 26.2222 14.9408 25.4988 14.9408C24.7755 14.9408 24.0446 14.8579 23.2836 14.7826C22.5602 14.662 21.8293 14.5038 21.0683 14.3004C20.5408 15.8299 20.6237 17.7664 21.0683 19.4618C21.8369 22.6867 23.811 25.1507 25.5064 26.2357C27.2394 25.1431 29.1759 22.6867 29.9444 19.4618C30.3513 17.7288 30.4719 15.8299 29.9444 14.3004C29.1759 14.5038 28.4902 14.7072 27.7292 14.7826H27.7141ZM25.0919 24.7438C25.0543 24.902 25.1296 24.9849 25.1296 25.0678C25.0919 25.1883 25.0091 25.1507 24.9714 25.0678C24.8885 24.9472 24.8508 24.8643 24.8508 24.6609C24.8132 24.3369 24.9714 24.2163 25.0543 24.1335C25.1372 24.0506 25.2125 24.0129 25.2125 24.0129L25.2502 24.5403C25.1673 24.5403 25.0919 24.578 25.0919 24.7438ZM25.7776 25.2712C25.7776 25.3541 25.74 25.4295 25.5742 25.4295C25.4536 25.4295 25.3707 25.3918 25.3707 25.226C25.3331 24.578 25.3331 23.4101 25.3331 23.4101C25.3331 23.4101 25.4913 23.4478 25.6119 23.5307C25.6495 23.5307 25.7324 23.6135 25.8153 23.6889C25.8153 23.7266 25.853 23.7266 25.853 23.7718C25.8153 24.2163 25.7701 25.0602 25.7701 25.2637L25.7776 25.2712ZM26.3051 24.0581C26.1468 24.1787 25.9811 24.2163 25.9811 24.2163V23.7341C25.9811 23.7341 26.0187 23.6964 26.0187 23.6135C25.9811 23.5307 25.6571 23.2895 25.4913 23.2067C25.2879 23.1238 25.0467 23.0484 24.8885 23.0032C24.4816 22.845 24.3234 22.4758 24.4816 22.0764C24.5193 21.9182 24.7227 21.8353 24.8056 21.7976C24.8885 21.7599 25.0467 21.7147 25.0467 21.7147L25.0844 22.2799C25.0844 22.2799 25.0467 22.2799 25.0015 22.3627C24.9563 22.4456 25.0392 22.521 25.0844 22.521C25.3632 22.6415 25.7324 22.7998 26.0112 22.9655C26.3729 23.169 26.4934 23.3272 26.4934 23.6135C26.5311 23.817 26.4106 23.9752 26.29 24.0581H26.3051ZM25.2954 21.4359C25.5742 21.4736 25.6571 21.4736 25.8982 21.5188L25.8605 22.6491L25.6194 22.5285L25.3783 22.4079L25.2954 21.4435V21.4359ZM26.9079 21.6771C26.8702 21.8805 26.7496 22.0387 26.5462 22.1593C26.3427 22.2799 26.1016 22.2799 26.1016 22.2799V21.5942C26.1016 21.5942 26.1393 21.5942 26.1845 21.5565C26.2297 21.5188 26.2222 21.4736 26.2222 21.4359C26.2222 21.3983 26.1845 21.3531 26.1393 21.3154C26.0564 21.2777 25.9811 21.2777 25.9359 21.2777L24.9714 21.1571C24.4063 21.0743 23.9617 20.7126 24.0069 20.1475C24.0446 19.7858 24.4138 19.6652 24.6926 19.5447L24.896 19.9516C24.9337 20.1098 24.9789 20.1927 24.9789 20.1927C24.9789 20.1927 24.8584 20.2304 24.8584 20.3132C24.8584 20.3961 24.9789 20.4338 25.0166 20.4338C25.4235 20.4715 25.9811 20.5544 26.2674 20.6749C26.4708 20.7578 26.6291 20.8331 26.7496 20.9989C26.9079 21.2777 26.9531 21.4812 26.9079 21.6846V21.6771ZM25.0543 19.0549C25.0543 19.0549 25.1748 19.0549 25.5365 19.0926C25.7776 19.0926 25.9811 19.1755 25.9811 19.1755L25.9434 20.3886C25.6646 20.3509 25.4988 20.3057 25.2577 20.268C25.1748 19.8235 25.0543 19.6652 24.896 19.3412C24.8584 19.2583 24.896 19.2207 24.896 19.2207C24.9337 19.183 25.0995 19.1378 25.0995 19.1378L25.0618 19.0549H25.0543ZM26.1393 20.268C26.1393 20.268 26.177 19.7029 26.177 19.4241C26.3352 19.3864 26.3804 19.2207 26.2975 19.1001C26.2599 19.0172 26.1393 18.9796 26.0941 18.9796C25.7701 18.8967 25.4913 18.8967 25.1673 18.859C24.8885 18.8213 24.6399 18.7761 24.3987 18.7384C23.8713 18.6179 23.389 18.3315 23.1479 17.8493C22.8691 17.2465 23.1103 16.478 23.7131 16.1916C24.1576 15.9505 24.6399 15.9882 25.0844 16.1916C25.2426 16.2293 25.3255 16.3951 25.4084 16.5156C25.4461 16.5533 25.529 16.5985 25.5666 16.6739C25.6043 16.7115 25.529 16.7115 25.529 16.7115C25.4461 16.7492 25.0844 16.7492 25.0015 16.7115H24.5193C24.6399 16.7944 24.7981 16.8698 24.9639 16.9527C25.0467 16.9903 25.1221 16.9903 25.205 17.0355C25.2426 17.0355 25.3255 17.0732 25.3255 17.1184C25.3255 17.1636 25.2426 17.1561 25.1673 17.2013C25.0467 17.239 24.8885 17.239 24.7227 17.2013C24.4816 17.1636 24.3611 16.9979 24.1953 17.0807C24.0747 17.1636 24.0747 17.2842 24.1124 17.4424C24.1501 17.6835 24.3912 17.7664 24.5946 17.8493C25.2803 18.0904 26.0489 17.9322 26.6894 18.2939C26.9305 18.4144 27.2545 18.7008 27.2922 18.9796C27.4956 20.1098 26.1242 20.268 26.1242 20.268H26.1393ZM27.3524 16.5156C27.3148 16.6362 27.2695 16.6362 27.1942 16.7191C27.036 16.8773 26.7873 17.0431 26.5462 17.2465C26.388 17.3671 26.2674 17.45 26.1393 17.6534C26.1016 17.6911 26.0564 17.774 26.0564 17.774C25.6495 17.6911 25.2879 17.6911 24.9639 17.6157V17.2917C24.9639 17.2917 25.3255 17.2917 25.3707 17.0506C25.3707 17.0506 25.3707 16.9677 25.3331 16.93C25.2954 16.8924 25.1748 16.8472 25.1296 16.8472C25.4084 16.8848 25.6947 17.0054 25.9735 17.126C25.9735 17.0883 25.9359 16.9677 25.9359 16.9677C25.8982 16.93 25.853 16.8848 25.7324 16.8472C25.5742 16.8095 25.1296 16.7643 25.1296 16.7643H25.4913C25.5742 16.7643 25.6947 16.7266 25.6947 16.6814C25.7324 16.6437 25.6947 16.5608 25.6119 16.478L25.4913 16.3574C25.4536 16.2745 25.3707 16.1992 25.3331 16.1163C25.2502 15.9957 24.9262 15.8752 24.9262 15.8752C24.9262 15.8752 24.8885 15.6717 24.9639 15.5964C25.0015 15.5135 25.1673 15.5135 25.205 15.5587C25.4084 15.6792 25.6872 15.7998 25.9735 15.8827C26.0288 15.9078 26.0564 15.9606 26.0564 16.0409C26.0941 16.2444 26.0187 16.5232 26.0564 16.6437C26.0564 16.6814 26.1393 16.6814 26.1393 16.6814C26.4181 16.5232 26.5839 16.2745 26.8627 16.1539C27.0661 16.0711 27.4278 16.2368 27.3449 16.5156H27.3524ZM31.1877 26.4768C30.7055 26.4768 30.2986 26.8837 30.2986 27.3659C30.2986 27.8482 30.7055 28.2551 31.1877 28.2551C31.6699 28.2551 32.0768 27.8482 32.0768 27.3659C32.0768 26.8837 31.6699 26.4768 31.1877 26.4768ZM31.1877 28.1345C30.7432 28.1345 30.4191 27.8105 30.4191 27.3659C30.4191 26.9214 30.7432 26.5974 31.1877 26.5974C31.6323 26.5974 31.9563 26.9214 31.9563 27.3659C31.9563 27.8105 31.6323 28.1345 31.1877 28.1345Z" fill="white"/>
<path d="M31.6701 27.1248C31.6701 26.9214 31.5872 26.846 31.3084 26.846H30.8638V27.8934H30.9844V27.4488H31.1878L31.4666 27.8934H31.6248L31.3008 27.4488C31.5043 27.4112 31.6625 27.3283 31.6625 27.1248H31.6701ZM31.1878 27.3283H30.9844V27.0043H31.2632C31.3837 27.0043 31.5043 27.0043 31.5043 27.1625C31.5043 27.3207 31.3008 27.3207 31.1803 27.3207L31.1878 27.3283ZM24.6475 16.2293C24.7304 16.3122 24.7304 16.3875 24.8509 16.3875C24.9338 16.3875 24.9715 16.3499 25.0092 16.3047H25.0921C24.9715 16.1841 24.6852 16.1841 24.4893 16.1464C24.5721 16.2293 24.6098 16.1841 24.6475 16.2293Z" fill="white"/>
</g>
<defs>
<clipPath id="clip0_4296_47422">
<rect width="186" height="18.0085" fill="white" transform="translate(0 11)"/>
</clipPath>
</defs>
</svg>
