<?xml version="1.0" encoding="utf-8"?>
<svg xmlns="http://www.w3.org/2000/svg" fill="none" height="24" viewBox="0 0 24 24" width="24">
<path d="M2.92007 3.00132C3.70328 1.53658 6.86162 1.69736 9.97476 3.36069C13.0882 5.02437 14.9782 7.56148 14.1955 9.02671L14.1144 9.15952C14.0028 9.32316 13.8574 9.46234 13.6837 9.57944C12.7281 10.6241 11.4294 11.8084 9.92691 12.475C8.35055 13.1741 6.518 13.3125 4.7023 12.1205C2.75983 10.8451 2.15524 9.12621 2.11636 7.47495C2.07961 5.90679 2.56407 4.31345 2.76577 3.34702C2.78777 3.24165 2.83089 3.14613 2.8898 3.06382C2.89967 3.04301 2.90917 3.02172 2.92007 3.00132ZM3.73159 5.96909C3.65283 6.44951 3.60467 6.94131 3.61636 7.4398C3.64593 8.69571 4.07013 9.911 5.52554 10.8666C6.82337 11.7186 8.09829 11.6451 9.31851 11.1039C9.94012 10.8281 10.5374 10.432 11.0929 9.98179C9.90657 9.84511 8.51874 9.4032 7.1398 8.66636C5.68911 7.89112 4.50423 6.92656 3.73159 5.96909ZM5.49722 3.5062C4.59551 3.46028 4.30842 3.66388 4.24917 3.71128C4.24271 3.78538 4.23074 4.13737 4.77163 4.86362C5.37615 5.67521 6.44037 6.59249 7.84683 7.34409C9.25334 8.09562 10.6076 8.47033 11.6183 8.52183C12.5218 8.56778 12.808 8.36352 12.8664 8.31675C12.8728 8.24213 12.8842 7.88986 12.3439 7.16441C11.7393 6.35276 10.6744 5.43557 9.26773 4.68394C7.86132 3.9325 6.50784 3.55771 5.49722 3.5062Z" fill="white"/>
<path clip-rule="evenodd" d="M22.5883 14.8064C22.5912 14.8625 22.5868 14.9199 22.5744 14.9777C22.2917 16.2976 21.7528 17.9502 20.7573 19.2754C19.7434 20.6251 18.2182 21.6725 16.0384 21.6061C13.7156 21.5353 12.2393 20.4189 11.322 19.0988C10.4261 17.8093 10.049 16.3114 9.85074 15.3767C9.83722 15.313 9.83349 15.2495 9.83856 15.1876C9.7964 13.6526 12.5779 12.2616 16.0811 12.0733C19.606 11.8838 22.5268 12.9839 22.6047 14.5303C22.6094 14.6229 22.6038 14.715 22.5883 14.8064ZM20.0615 13.9485C20.8975 14.2634 21.0678 14.5489 21.1003 14.6112C21.0742 14.6766 20.9336 14.9788 20.1337 15.3816C19.2396 15.8319 17.8855 16.1915 16.293 16.2771C14.7005 16.3627 13.3176 16.1502 12.383 15.7982C11.5469 15.4833 11.3767 15.1978 11.3442 15.1355C11.3702 15.0701 11.5109 14.7679 12.3107 14.3651C13.2049 13.9148 14.559 13.5552 16.1515 13.4696C17.7439 13.384 19.1269 13.5965 20.0615 13.9485ZM20.476 16.7792C19.3817 17.2577 17.9462 17.5883 16.3634 17.6734C14.6647 17.7647 13.1063 17.5565 11.9388 17.1433C12.1106 17.5488 12.3215 17.9531 12.5829 18.3294C13.2955 19.3549 14.3663 20.1553 16.1032 20.2082C17.6436 20.2551 18.7289 19.5504 19.5324 18.481C19.9165 17.9696 20.2271 17.384 20.476 16.7792Z" fill="white" fill-rule="evenodd"/>
</svg>