<svg width="186" height="40" viewBox="0 0 186 40" fill="none" xmlns="http://www.w3.org/2000/svg">
<path d="M16.9834 17.1564C17.1619 17.208 17.3149 17.2596 17.4934 17.3112L18.8194 13.2095C18.9724 13.2869 19.1509 13.3643 19.3039 13.4417L20.5279 9.62371C20.3749 9.52052 20.2219 9.41733 20.0689 9.31415L21.4714 4.90286L20.9614 4.72229L19.5844 9.00459C19.4314 8.9014 19.2784 8.82401 19.0999 8.72082L17.7739 12.8225C17.9524 12.8741 18.1054 12.9257 18.2839 12.9773L16.9834 17.1564Z" fill="white"/>
<path d="M26.0358 20.1488C26.0358 19.9682 26.0358 19.7876 26.0103 19.6071H23.4093C23.4348 19.7876 23.4348 19.9682 23.4348 20.1488H19.5078C19.5078 20.2262 19.5078 20.3294 19.5078 20.4068C19.5078 20.4842 19.5078 20.5873 19.5078 20.6647H23.4348C23.4348 20.8453 23.4348 21.0259 23.4093 21.2065H26.0103C26.0103 21.0259 26.0358 20.8453 26.0358 20.6647H32.4363V20.123H26.0358V20.1488Z" fill="white"/>
<path d="M16.4723 23.7346C16.3958 23.7346 16.2938 23.7346 16.2173 23.7346C16.1153 23.7346 16.0388 23.7346 15.9623 23.7346V28.2749C15.8603 28.2749 15.7583 28.2749 15.6563 28.2749H15.4268V33.4085C15.6053 33.3827 15.7838 33.3311 15.9623 33.2795V36.7879H16.4978V33.1247C16.6763 33.0731 16.8548 33.0215 17.0333 32.9699V28.1717C16.8548 28.1975 16.6763 28.2233 16.4978 28.2491L16.4723 23.7346Z" fill="white"/>
<path d="M15.4531 23.6572C15.2746 23.6056 15.1216 23.554 14.9431 23.5024L13.4896 27.9911C13.3111 27.9395 13.1581 27.8879 12.9796 27.8363L11.1436 33.5633C11.3221 33.5891 11.5006 33.6149 11.6791 33.6149L10.9141 35.9624L11.4241 36.1172L12.2146 33.6407C12.3931 33.6407 12.5716 33.6664 12.7756 33.6664L14.5351 28.2233C14.3566 28.1975 14.1781 28.1717 13.9996 28.1201L15.4531 23.6572Z" fill="white"/>
<path d="M24.1482 13.5706L21.6747 15.4022C21.7767 15.5312 21.9042 15.686 22.0062 15.8407L18.7422 18.2657C18.8697 18.3946 18.9717 18.5494 19.0482 18.7042L22.2867 16.3051C22.3887 16.4599 22.4652 16.6146 22.5417 16.7694L24.9132 15.041C24.8367 14.8863 24.7602 14.7057 24.6837 14.5509L29.5032 10.9909L29.1972 10.5524L24.4287 14.0607C24.3267 13.8802 24.2502 13.7254 24.1482 13.5706Z" fill="white"/>
<path d="M19.9403 13.8285C20.0933 13.9317 20.2463 14.0349 20.3738 14.1381L17.9258 17.5433C18.0788 17.6465 18.2318 17.7497 18.3593 17.8529L20.7818 14.4735C20.9093 14.6025 21.0623 14.7056 21.1898 14.8346L23.1533 12.1002C23.0258 11.9454 22.9238 11.8164 22.7963 11.6874L25.9583 7.27612L25.5248 6.96655L22.4393 11.3004C22.3118 11.1715 22.1843 11.0425 22.0568 10.9135L19.9403 13.8285Z" fill="white"/>
<path d="M25.4494 16.5115L22.8484 17.3628C22.9249 17.5176 22.9759 17.6981 23.0269 17.8787L19.2529 19.117C19.3294 19.2718 19.3804 19.4523 19.4059 19.6329L23.1799 18.3947C23.2309 18.5752 23.2564 18.7558 23.3074 18.9364L25.8319 18.1109C25.8064 17.9303 25.7554 17.7497 25.7299 17.5692L31.7225 15.6086L31.5695 15.0927L25.6024 17.0532C25.5514 16.8726 25.5259 16.6921 25.4494 16.5115Z" fill="white"/>
<path d="M15.937 12.5388V17.0791C16.0135 17.0791 16.1155 17.0533 16.192 17.0533C16.2685 17.0533 16.3705 17.0533 16.447 17.0791V12.5646C16.6255 12.5904 16.804 12.6162 16.9825 12.642V7.81795C16.804 7.76636 16.6255 7.71477 16.447 7.66317V4H15.9115V7.50839C15.733 7.45679 15.5545 7.431 15.376 7.3794V12.513H15.6055C15.7585 12.513 15.8605 12.5388 15.937 12.5388Z" fill="white"/>
<path d="M11.169 7.27611L13.005 12.9772C13.158 12.9256 13.3365 12.874 13.515 12.8225L14.9685 17.3111C15.1215 17.2337 15.3 17.1821 15.4785 17.1563L14.025 12.6935C14.2035 12.6419 14.382 12.6161 14.5605 12.5903L12.801 7.14712C12.6225 7.14712 12.444 7.17292 12.24 7.17292L11.4495 4.69641L10.9395 4.87699L11.7045 7.22451C11.526 7.25031 11.3475 7.25031 11.169 7.27611Z" fill="white"/>
<path d="M3.03353 11.739L9.07704 16.1761C9.17904 16.0213 9.28104 15.8665 9.38304 15.7376L13.3866 18.6784C13.4886 18.5236 13.5906 18.3688 13.6926 18.2399L9.71454 15.3248C9.84204 15.1958 9.94405 15.041 10.0715 14.9121L4.18103 10.5782C4.05353 10.7071 3.92603 10.8361 3.79853 10.9651L3.26303 10.5524L2.95703 10.9909L3.44153 11.3521C3.28853 11.4811 3.16103 11.5842 3.03353 11.739Z" fill="white"/>
<path d="M23.1533 28.6877L21.1898 25.9532C21.0623 26.0822 20.9348 26.1853 20.7818 26.3143L18.3593 22.9349C18.2318 23.0639 18.0788 23.1671 17.9258 23.2445L20.3738 26.6497C20.2208 26.7529 20.0678 26.8819 19.9403 26.9593L22.0313 29.9001C22.1588 29.7711 22.2863 29.6421 22.4138 29.5132L25.5248 33.8212L25.9583 33.5117L22.7963 29.1004C22.9238 28.9714 23.0258 28.8424 23.1533 28.6877Z" fill="white"/>
<path d="M10.0726 25.9275C9.94513 25.7985 9.84313 25.6695 9.71563 25.5147L13.6936 22.5997C13.5661 22.4707 13.4641 22.3159 13.3876 22.1611L9.38413 25.102C9.28213 24.9472 9.18013 24.7924 9.07813 24.6634L3.03462 29.1263C3.16212 29.2553 3.26412 29.3843 3.39162 29.5133L2.93262 29.8486L3.23862 30.2872L3.77412 29.9002C3.90162 30.0292 4.02912 30.1582 4.15662 30.2872L10.0726 25.9275Z" fill="white"/>
<path d="M20.5279 31.2157L19.3039 27.3978C19.1509 27.4752 18.9724 27.5526 18.8194 27.63L17.4934 23.5024C17.3404 23.5798 17.1619 23.6314 16.9834 23.6572L18.3094 27.8105C18.1309 27.8621 17.9779 27.9395 17.7994 27.9653L19.1254 32.067C19.2784 31.9896 19.4314 31.8865 19.6099 31.7833L20.9869 36.0656L21.4969 35.9108L20.0689 31.5253C20.2219 31.4221 20.3749 31.3189 20.5279 31.2157Z" fill="white"/>
<path d="M24.9132 25.7984L22.5417 24.07C22.4652 24.2248 22.3632 24.3796 22.2867 24.5344L19.0482 22.1353C18.9462 22.29 18.8442 22.4448 18.7422 22.5738L22.0062 24.9729C21.9042 25.1277 21.8022 25.2825 21.6747 25.4115L24.1737 27.243C24.2757 27.0883 24.3522 26.9335 24.4287 26.7787L29.1972 30.2871L29.5032 29.8485L24.6837 26.3144C24.7602 26.108 24.8367 25.9532 24.9132 25.7984Z" fill="white"/>
<path d="M25.8319 22.7286L23.3074 21.9031C23.2819 22.0837 23.2309 22.2643 23.1799 22.419L19.4059 21.1808C19.3549 21.3614 19.3039 21.5161 19.2529 21.6967L23.0269 22.935C22.9759 23.1156 22.8994 23.2703 22.8484 23.4509L25.4494 24.3022C25.5004 24.1216 25.5514 23.9669 25.5769 23.7863L31.544 25.7469L31.697 25.2309L25.7044 23.2703C25.7554 23.064 25.8064 22.9092 25.8319 22.7286Z" fill="white"/>
<path d="M6.80828 8.69511L10.7863 14.2415C10.9138 14.1383 11.0923 14.0351 11.2198 13.9319L14.0503 17.8788C14.1778 17.7498 14.3308 17.6467 14.4838 17.5693L11.6533 13.6481C11.8063 13.5449 11.9593 13.4676 12.1123 13.3902L8.26178 8.05019C8.08328 8.12758 7.93028 8.17917 7.75178 8.25656L6.85928 7.01831L6.42578 7.32788L7.26728 8.48874C7.13978 8.54033 6.98678 8.61772 6.80828 8.69511Z" fill="white"/>
<path d="M7.87952 20.6905H12.9285C12.9285 20.6131 12.903 20.5099 12.903 20.4325C12.903 20.3551 12.903 20.2519 12.9285 20.1746H7.87952C7.87952 19.994 7.90502 19.8134 7.90502 19.6328H0V21.258H7.90502C7.87952 21.0259 7.87952 20.8711 7.87952 20.6905Z" fill="white"/>
<path d="M8.21165 18.0593L12.9802 19.6329C13.0312 19.4524 13.0822 19.2976 13.1332 19.117L8.36465 17.5434C8.44115 17.3886 8.49215 17.208 8.56865 17.0533L1.14813 14.6025C0.918633 15.0927 0.714633 15.5828 0.536133 16.0988L8.03315 18.5753C8.10965 18.4205 8.16065 18.2399 8.21165 18.0593Z" fill="white"/>
<path d="M12.1377 27.4494C11.9847 27.372 11.8317 27.2688 11.6787 27.1914L14.4837 23.2703C14.3307 23.1671 14.1777 23.0639 14.0502 22.9607L11.2197 26.8818C11.0667 26.7786 10.9137 26.6755 10.7862 26.5723L6.80817 32.1186C6.96117 32.196 7.13967 32.2734 7.29267 32.3508L6.45117 33.5117L6.88467 33.847L7.77717 32.583C7.95568 32.6604 8.10868 32.7377 8.28718 32.7893L12.1377 27.4494Z" fill="white"/>
<path d="M8.39015 23.2703L13.1587 21.6967C13.0822 21.5419 13.0312 21.3614 12.9802 21.1808L8.21165 22.7544C8.16065 22.5738 8.10965 22.419 8.05865 22.2385L0.536133 24.715C0.714633 25.2309 0.918633 25.7211 1.14813 26.2112L8.59415 23.7605C8.51765 23.6057 8.46665 23.4251 8.39015 23.2703Z" fill="white"/>
<path d="M77.4443 12.255V14.7573H81.0143V13.1837V12.255H77.4443Z" fill="white"/>
<path d="M91.3931 25.2567C91.6736 24.8182 91.8011 24.3022 91.7756 23.7863C91.7756 23.4767 91.7501 23.1414 91.6736 22.8318C91.5971 22.548 91.4951 22.2643 91.3166 22.0321C91.1126 21.7741 90.8576 21.542 90.5771 21.3614C90.1946 21.1292 89.7611 20.9228 89.3276 20.7938C88.9706 20.6649 88.6646 20.5875 88.3586 20.4843C88.0526 20.4069 87.7721 20.3295 87.5426 20.2263C87.3131 20.1489 87.1091 20.0457 86.9306 19.8909C86.7521 19.762 86.6246 19.5298 86.6246 19.2976C86.6246 18.7301 87.0836 18.4463 87.9761 18.4463C88.4606 18.4463 88.9451 18.5495 89.4041 18.7301C89.7611 18.8849 90.1181 19.0654 90.4751 19.246L91.5206 17.3113C90.9851 16.9759 90.4241 16.7179 89.8376 16.5373C89.1236 16.331 88.3586 16.2278 87.6191 16.2278C87.0326 16.2278 86.4461 16.3052 85.8851 16.46C85.4006 16.5889 84.9416 16.8211 84.5591 17.1307C84.2276 17.3886 83.9216 17.724 83.7176 18.0852C83.5136 18.4463 83.4116 18.8333 83.4116 19.2202C83.4116 19.5814 83.4881 19.9683 83.6156 20.3037C83.7431 20.6133 83.9471 20.897 84.2021 21.1292C84.4826 21.3872 84.7886 21.5935 85.1456 21.7483C85.5281 21.9289 85.9361 22.0837 86.3696 22.2127C86.9561 22.3933 87.5171 22.5738 88.0781 22.806C88.4096 22.9092 88.6391 23.2188 88.6646 23.5799C88.6901 23.9411 88.4606 24.3022 88.1036 24.4054C87.7721 24.5086 87.4151 24.5602 87.0581 24.5602C86.8031 24.5602 86.5481 24.5344 86.3186 24.4828C86.0381 24.4312 85.7576 24.3538 85.4771 24.2764C85.1966 24.1732 84.9416 24.0701 84.6611 23.9411C84.4826 23.8637 84.3296 23.7605 84.1766 23.6315L82.8506 25.6437C83.4116 26.0564 84.0491 26.366 84.7376 26.5466C86.1146 26.9593 87.5426 27.0367 88.9451 26.7529C89.4551 26.6498 89.9396 26.4692 90.3986 26.2112C90.7811 26.0048 91.1381 25.6695 91.3931 25.2567Z" fill="white"/>
<path d="M77.5967 16.6147V26.5724H80.8607V24.4054V16.6147H77.5967Z" fill="white"/>
<path d="M72.2673 16.6147L70.1763 23.322L67.9068 16.6147H64.3623L68.5188 26.5724H71.5278L75.8118 16.6147H72.2673Z" fill="white"/>
<path d="M54.647 26.3402C54.9275 26.5466 55.259 26.7014 55.616 26.8046C55.9475 26.882 56.279 26.9336 56.636 26.9336C57.197 26.9594 57.7835 26.8562 58.319 26.6498C58.829 26.4176 59.288 26.0823 59.645 25.6695L59.951 25.3342L60.1295 26.5724H63.1895V20.5101C63.215 19.8652 63.0875 19.2461 62.858 18.6528C62.654 18.1368 62.3225 17.6983 61.94 17.3371C61.532 16.976 61.0475 16.718 60.512 16.5374C59.9 16.3568 59.2625 16.2536 58.625 16.2794C57.6305 16.2536 56.636 16.3826 55.667 16.718C55.106 16.9244 54.545 17.2081 54.035 17.5435L55.208 19.3493C55.5395 19.1429 55.8965 18.9881 56.279 18.8591C56.8655 18.6786 57.4775 18.5754 58.0895 18.6012C58.2935 18.6012 58.4975 18.627 58.7015 18.6528C58.9055 18.7044 59.135 18.7559 59.3135 18.8849C59.5175 18.9881 59.6705 19.1687 59.798 19.3493C59.9255 19.5814 60.002 19.8394 60.002 20.1232V20.5617L59.7725 20.5359C59.543 20.5101 59.3135 20.4843 59.1095 20.4585C58.9055 20.4327 58.6505 20.4327 58.319 20.4327C57.707 20.4327 57.095 20.5101 56.483 20.6649C55.9475 20.7939 55.4375 21.0261 54.9785 21.3614C54.5705 21.6452 54.2135 22.0322 53.9585 22.4707C53.7035 22.9351 53.576 23.4768 53.6015 24.0185C53.576 24.5087 53.678 24.9988 53.882 25.4632C54.1115 25.7985 54.341 26.1081 54.647 26.3402ZM57.3245 22.4191C57.758 22.1096 58.2935 21.9548 58.829 22.0064C59.186 22.0064 59.543 22.0322 59.8745 22.1095L60.0275 22.1611V23.0124C60.0275 23.322 59.9765 23.6058 59.8745 23.8895C59.7725 24.1217 59.645 24.3023 59.4665 24.4571C59.288 24.6119 59.084 24.715 58.88 24.7666C58.676 24.8182 58.472 24.844 58.2425 24.844C57.3245 24.844 56.789 24.3539 56.789 23.4768C56.8145 23.0382 56.993 22.6513 57.3245 22.4191Z" fill="white"/>
<path d="M51.3824 22.5996C51.7904 21.6193 51.9944 20.5617 51.9689 19.4782C51.9944 18.3689 51.7904 17.2597 51.3824 16.2278C51.0254 15.3765 50.4899 14.6026 49.8014 13.9834C49.0874 13.3901 48.2714 12.9258 47.4044 12.6678C46.4099 12.384 45.3899 12.2292 44.3444 12.2292H38.9639V26.5724H44.3189C45.3389 26.5724 46.3844 26.4176 47.3534 26.1338C48.2459 25.8758 49.0619 25.4115 49.7759 24.7924C50.4899 24.199 51.0254 23.4509 51.3824 22.5996ZM47.3024 22.3932C46.5629 23.1672 45.5174 23.5541 44.1914 23.5541H42.4064V15.2217H44.1914C44.8289 15.1959 45.4409 15.2991 46.0529 15.5313C46.5374 15.7118 46.9964 16.0214 47.3789 16.3826C47.7359 16.7695 47.9909 17.2081 48.1439 17.6982C48.3224 18.2399 48.3989 18.8075 48.3989 19.375C48.4499 20.5101 48.0419 21.5935 47.3024 22.3932Z" fill="white"/>
<path d="M92.6934 12.255H94.9629L99.2724 24.0442L103.582 12.255H105.724L100.241 26.5981H98.1759L92.6934 12.255Z" fill="white"/>
<path d="M107.229 12.6162H109.371V14.7832H107.229V12.6162ZM107.356 16.5889H109.269V26.5724H107.356V16.5889Z" fill="white"/>
<path d="M112.634 24.0701C112.991 24.4312 113.425 24.715 113.909 24.9214C114.445 25.1535 115.031 25.2567 115.643 25.2309C116.179 25.2567 116.74 25.1535 117.224 24.9214C117.607 24.7666 117.862 24.3796 117.862 23.9411C117.862 23.7347 117.811 23.5283 117.734 23.3477C117.632 23.1672 117.479 23.0124 117.275 22.9092C116.995 22.7544 116.689 22.6254 116.383 22.548C116.026 22.4449 115.567 22.3159 115.031 22.1869C114.649 22.1095 114.266 21.9805 113.884 21.8515C113.527 21.7225 113.17 21.5162 112.864 21.284C112.558 21.0518 112.328 20.7422 112.15 20.4069C111.946 20.0199 111.869 19.6072 111.869 19.1944C111.869 18.7559 111.971 18.2915 112.201 17.9046C112.43 17.5434 112.736 17.2081 113.093 16.9759C113.476 16.7179 113.884 16.5373 114.343 16.4084C114.802 16.2794 115.286 16.202 115.796 16.202C116.536 16.1762 117.25 16.3052 117.964 16.5373C118.55 16.7437 119.086 17.0533 119.545 17.466L118.499 18.8075C118.168 18.5237 117.785 18.2915 117.377 18.111C116.867 17.9046 116.357 17.8272 115.822 17.8272C115.312 17.8014 114.802 17.9046 114.343 18.1368C113.986 18.3173 113.756 18.7043 113.782 19.117C113.782 19.5556 114.037 19.8652 114.521 20.0715C115.133 20.3295 115.796 20.5359 116.434 20.6649C116.867 20.768 117.301 20.897 117.734 21.0518C118.117 21.1808 118.474 21.3872 118.805 21.6193C119.111 21.8515 119.366 22.1611 119.519 22.4964C119.698 22.8834 119.8 23.3219 119.774 23.7347C119.774 24.199 119.672 24.6634 119.443 25.0503C119.213 25.4373 118.907 25.7727 118.525 26.0048C118.117 26.2628 117.683 26.4692 117.199 26.5724C116.689 26.7013 116.179 26.7787 115.643 26.7787C113.782 26.7787 112.379 26.2628 111.436 25.2567L112.634 24.0701Z" fill="white"/>
<path d="M121.993 12.6162H124.135V14.7832H121.993V12.6162ZM122.121 16.5889H124.033V26.5724H122.121V16.5889Z" fill="white"/>
<path d="M131.503 26.8817C130.789 26.8817 130.075 26.7527 129.412 26.4689C128.8 26.211 128.239 25.7982 127.755 25.3081C127.296 24.8179 126.913 24.2504 126.658 23.6313C126.123 22.3156 126.123 20.8452 126.658 19.5296C126.913 18.9104 127.27 18.3429 127.755 17.8527C128.214 17.3626 128.775 16.9757 129.412 16.6919C130.764 16.1244 132.268 16.1244 133.594 16.6919C134.206 16.9499 134.767 17.3626 135.252 17.8527C135.711 18.3429 136.093 18.9104 136.348 19.5296C136.884 20.8452 136.884 22.3156 136.348 23.6313C136.093 24.2504 135.711 24.8437 135.252 25.3081C134.767 25.7982 134.206 26.1852 133.594 26.4689C132.931 26.7527 132.217 26.8817 131.503 26.8817ZM131.503 25.2049C131.988 25.2049 132.447 25.1017 132.88 24.8953C133.288 24.6889 133.645 24.4052 133.926 24.0698C134.206 23.7345 134.436 23.3475 134.563 22.909C134.716 22.4704 134.793 22.0319 134.793 21.5675C134.793 21.129 134.716 20.6646 134.563 20.2519C134.41 19.8133 134.206 19.4264 133.9 19.091C133.62 18.7556 133.263 18.4719 132.855 18.2655C132.421 18.0591 131.962 17.9559 131.478 17.9559C130.993 17.9559 130.534 18.0591 130.101 18.2655C129.693 18.4719 129.361 18.7298 129.055 19.0652C128.775 19.4006 128.545 19.8133 128.418 20.2261C128.265 20.6646 128.188 21.1032 128.188 21.5675C128.188 22.0319 128.265 22.4704 128.418 22.909C128.571 23.3217 128.775 23.7345 129.055 24.0698C129.336 24.4052 129.693 24.6889 130.101 24.8953C130.56 25.1017 131.019 25.2307 131.503 25.2049Z" fill="white"/>
<path d="M138.899 26.5722V17.5949C138.899 17.2595 138.899 16.9242 138.873 16.563H140.709L140.786 18.0592C140.913 17.8787 141.092 17.6981 141.245 17.4917C141.449 17.2595 141.678 17.079 141.933 16.9242C142.239 16.7436 142.545 16.5888 142.877 16.4856C143.285 16.3567 143.693 16.3051 144.101 16.3051C145.401 16.3051 146.345 16.692 146.957 17.4401C147.569 18.1882 147.9 19.2459 147.9 20.5358V26.5465H145.988V20.7163C145.988 19.7876 145.784 19.0911 145.401 18.6526C144.968 18.1882 144.356 17.9561 143.718 18.0077C143.234 17.9819 142.749 18.1108 142.341 18.343C141.984 18.5752 141.678 18.8847 141.449 19.2459C141.219 19.6329 141.066 20.0456 140.964 20.4842C140.862 20.9485 140.811 21.4129 140.811 21.903V26.5465H138.899V26.5722Z" fill="white"/>
<path d="M148.768 12.7709H147.875V12.3324H150.119V12.7709H149.226V14.9379H148.742L148.768 12.7709Z" fill="white"/>
<path d="M150.527 12.3324H150.986L151.7 13.5448L152.414 12.3324H152.873L153 14.9379H152.516L152.414 13.1321L151.802 14.1898H151.572L150.96 13.1579L150.884 14.9637H150.425L150.527 12.3324Z" fill="white"/>
</svg>
