<?xml version="1.0" encoding="utf-8"?>
<svg xmlns="http://www.w3.org/2000/svg" fill="none" height="32" viewBox="0 0 32 32" width="32">
<path d="M9.99951 5.25C10.4137 5.25 10.7495 5.58579 10.7495 6C10.7495 6.41421 10.4137 6.75 9.99951 6.75H8.88721C8.02205 6.75015 7.23329 7.24639 6.85889 8.02637L2.36377 17.3916C2.28437 17.5573 2.40477 17.7495 2.58838 17.75H3.05615C3.45296 14.874 5.96174 14.0001 8.99951 14C11.5646 14 13.7527 14.6236 14.6108 16.5488C14.9855 16.3743 15.4484 16.2501 15.9995 16.25C16.5501 16.25 17.0127 16.3747 17.3872 16.5488C18.2451 14.6232 20.4343 14.0001 22.9995 14C26.0375 14 28.547 14.8739 28.9438 17.75H29.4106C29.5945 17.7497 29.7149 17.5575 29.6353 17.3916L24.8677 7.45898C24.6596 7.02579 24.2213 6.75 23.7407 6.75H21.9995C21.5855 6.74979 21.2495 6.41408 21.2495 6C21.2495 5.58592 21.5855 5.25021 21.9995 5.25H23.7407C24.7982 5.25 25.7625 5.85639 26.2202 6.80957L30.9878 16.7432C31.5451 17.9047 30.6989 19.2497 29.4106 19.25H28.9683C28.6563 22.4805 26.1026 25 22.9995 25C19.686 24.9998 16.9995 22.1267 16.9995 18.583C16.9995 18.4045 17.0076 18.2324 17.021 18.0664C16.7981 17.9066 16.4664 17.75 15.9995 17.75C15.5321 17.7501 15.1999 17.9063 14.9771 18.0664C14.9904 18.2324 14.9995 18.4044 14.9995 18.583C14.9995 22.1268 12.3132 25 8.99951 25C5.89658 24.9998 3.34368 22.4803 3.03174 19.25H2.58838C1.30036 19.2495 0.454156 17.9045 1.01123 16.7432L5.50635 7.37695C6.13041 6.077 7.44523 5.25015 8.88721 5.25H9.99951ZM8.99951 15.5C7.4495 15.5 6.29697 15.7522 5.57178 16.2217C4.96331 16.6157 4.49959 17.2576 4.49951 18.583C4.49951 21.3947 6.60766 23.4998 8.99951 23.5C11.3915 23.5 13.4995 21.3949 13.4995 18.583C13.4995 18.2144 13.4618 17.8992 13.397 17.627L13.3618 17.6055L13.3628 17.6045V17.6025C13.3633 17.6017 13.3641 17.6006 13.3647 17.5996C13.3661 17.5975 13.368 17.5953 13.3696 17.5928C13.373 17.5875 13.3776 17.5813 13.3823 17.5742L13.3833 17.5713C13.2094 16.8983 12.855 16.4986 12.4272 16.2217C11.702 15.7523 10.5495 15.5 8.99951 15.5ZM22.9995 15.5C21.4495 15.5 20.297 15.7522 19.5718 16.2217C19.1439 16.4987 18.7885 16.8986 18.6147 17.5723L18.6167 17.5742C18.6214 17.5813 18.626 17.5875 18.6294 17.5928C18.631 17.5953 18.6329 17.5975 18.6343 17.5996C18.6349 17.6006 18.6357 17.6017 18.6362 17.6025V17.6045L18.6372 17.6055C18.6358 17.6064 18.6291 17.6096 18.6011 17.627C18.5363 17.8991 18.4995 18.2146 18.4995 18.583C18.4995 21.3947 20.6077 23.4998 22.9995 23.5C25.3915 23.5 27.4995 21.3949 27.4995 18.583C27.4994 17.2574 27.0359 16.6157 26.4272 16.2217C25.702 15.7523 24.5495 15.5 22.9995 15.5Z" fill="#ffffffff"/>
</svg>