<svg width="24" height="24" viewBox="0 0 24 24" fill="none" xmlns="http://www.w3.org/2000/svg">
<path fill-rule="evenodd" clip-rule="evenodd" d="M6.95106 5.75C6.06189 5.75 5.25611 6.27365 4.89498 7.08619L2.49026 12.4968C3.23443 11.3749 4.75125 11 6.50144 11C8.29926 11 9.85084 11.3956 10.5717 12.5901C10.9553 12.3977 11.4348 12.25 12.0014 12.25C12.5681 12.25 13.0476 12.3977 13.4312 12.5901C14.152 11.3956 15.7036 11 17.5014 11C19.2516 11 20.7685 11.3749 21.5126 12.4968L18.844 6.49233C18.6433 6.04092 18.1957 5.75 17.7017 5.75H17.0014C16.5872 5.75 16.2514 5.41421 16.2514 5C16.2514 4.58579 16.5872 4.25 17.0014 4.25H17.7017C18.7885 4.25 19.7733 4.89002 20.2147 5.88312L23.1245 12.4301C23.5572 13.4038 22.9676 14.4874 21.9871 14.7091C21.8026 17.1107 19.8647 19 17.5014 19C15.0162 19 13.0014 16.9107 13.0014 14.3333C13.0014 14.2472 13.0037 14.163 13.0081 14.0809C12.7612 13.9058 12.4244 13.75 12.0014 13.75C11.5785 13.75 11.2417 13.9058 10.9947 14.0809C10.9992 14.163 11.0014 14.2472 11.0014 14.3333C11.0014 16.9107 8.98672 19 6.50144 19C4.13813 19 2.20033 17.1107 2.01582 14.7091C1.03527 14.4874 0.445664 13.4038 0.878429 12.4301L3.52427 6.47698C4.12615 5.12275 5.4691 4.25 6.95106 4.25H7.00144C7.41566 4.25 7.75144 4.58579 7.75144 5C7.75144 5.41421 7.41566 5.75 7.00144 5.75H6.95106ZM6.50144 17.5C8.10735 17.5 9.50144 16.1341 9.50144 14.3333C9.50144 13.5113 9.22275 13.182 8.88595 12.9706C8.4276 12.6829 7.64265 12.5 6.50144 12.5C5.36024 12.5 4.57528 12.6829 4.11693 12.9706C3.78014 13.182 3.50144 13.5113 3.50144 14.3333C3.50144 16.1341 4.89554 17.5 6.50144 17.5ZM17.5014 17.5C19.1073 17.5 20.5014 16.1341 20.5014 14.3333C20.5014 13.5113 20.2227 13.182 19.886 12.9706C19.4276 12.6829 18.6426 12.5 17.5014 12.5C16.3602 12.5 15.5753 12.6829 15.1169 12.9706C14.7801 13.182 14.5014 13.5113 14.5014 14.3333C14.5014 16.1341 15.8955 17.5 17.5014 17.5Z" fill="#676F78"/>
</svg>
