<svg width="186" height="40" viewBox="0 0 186 40" fill="none" xmlns="http://www.w3.org/2000/svg">
<path d="M16.2622 14.8983C16.535 14.7484 16.66 14.3218 16.8874 14.0854C19.678 11.2314 25.1684 12.0386 27.1349 15.544C30.7326 21.9668 24.4295 29.8887 17.7172 25.7432L16.2622 24.2557V30.9265C16.2622 31.2436 15.0345 31.1109 14.7617 31.134V12.6959H16.2622V14.8983ZM20.4567 13.8374C14.0229 14.6216 15.0402 25.8759 21.6389 25.4953C28.6411 25.086 28.158 12.9034 20.4567 13.8374Z" fill="white"/>
<path d="M88.3024 20.2248H76.6965C76.8147 25.2298 82.5952 27.4823 86.1917 24.2127C87.7114 25.3792 86.5182 26.0285 85.2912 26.5572C83.8278 27.1892 81.8522 27.2582 80.3156 26.9019C72.4696 25.0804 73.6572 11.2837 83.2312 12.4215C86.6308 12.8237 89.4619 16.8691 88.308 20.2248H88.3024ZM87.0867 18.8515C86.5632 11.7952 77.4901 12.2434 76.6965 18.8515H87.0867Z" fill="white"/>
<path d="M44.7013 20.2261H33.0861C33.1311 24.3176 37.3108 26.892 40.9666 25.283C41.3609 25.1106 42.4988 24.1911 42.5946 24.2084C42.7861 24.2486 43.5015 25.2428 43.3268 25.5473C43.2818 25.622 42.0594 26.3691 41.8679 26.461C40.3188 27.1966 38.3642 27.2655 36.7081 26.9035C28.912 25.1853 29.9654 11.273 39.626 12.4223C43.0227 12.8245 45.8223 16.8701 44.7069 20.2261H44.7013ZM43.4846 18.8526C42.9551 11.8074 33.8747 12.2327 33.0861 18.8526H43.4846Z" fill="white"/>
<path d="M115.371 15.0687V12.687H116.752V26.6193C116.752 26.9243 115.63 26.8187 115.371 26.8305V24.4488C112.277 28.5786 105.749 27.7984 103.862 22.906C103.074 20.8704 103.178 17.9666 104.086 16.0014C106.226 11.373 112.426 11.2498 115.371 15.0687ZM109.832 13.7019C102.637 13.9717 103.402 26.2556 110.615 25.7042C117.465 25.1821 116.769 13.4438 109.832 13.7019Z" fill="white"/>
<path d="M120.383 12.2357C119.523 12.2357 118.765 11.5279 118.765 10.6179C118.765 9.70782 119.472 9 120.383 9C121.293 9 122 9.75837 122 10.6179C122 11.4774 121.293 12.2357 120.383 12.2357ZM121.798 10.6179C121.798 9.85949 121.191 9.20223 120.383 9.20223C119.574 9.20223 118.967 9.85949 118.967 10.6179C118.967 11.3762 119.574 12.0335 120.383 12.0335C121.191 12.0335 121.798 11.3762 121.798 10.6179ZM120.433 9.70782C120.787 9.70782 120.989 9.85949 120.989 10.1628C120.989 10.4662 120.838 10.5167 120.686 10.5673C120.888 10.5673 120.939 10.6684 120.989 11.0223C120.989 11.174 120.989 11.3257 121.09 11.4268H120.838C120.736 11.2246 120.787 10.9718 120.736 10.8201C120.736 10.719 120.635 10.6179 120.383 10.6179H120.079V11.3762H119.826V9.70782H120.433ZM120.029 10.4662H120.433C120.686 10.4662 120.787 10.3651 120.787 10.2134C120.787 10.0617 120.686 9.96061 120.484 9.96061H120.079V10.5167L120.029 10.4662Z" fill="white"/>
<path d="M2.65883 14.5561C1.35808 15.8504 2.22334 17.5951 3.74184 18.2223C6.08548 19.1916 10.4576 19.089 10.7212 22.6013C11.1051 27.6759 3.79341 28.2746 1.04292 25.3895C0.807985 25.1443 -0.00570006 23.9811 3.01134e-05 23.6903C0.00576029 23.3824 0.939779 22.9833 1.19764 22.9719C1.42684 22.9605 2.11446 24.3004 2.48693 24.6425C4.85922 26.8206 10.853 25.5719 8.87034 21.9912C7.44926 19.4254 0.853826 21.1987 0.555857 16.4833C0.229237 11.3175 8.80158 11.1692 10.3373 15.0921C10.7269 16.0899 9.54077 16.5175 9.13966 16.1469C8.91619 15.9416 8.66406 15.1092 8.25148 14.71C7.00804 13.5184 3.89082 13.3359 2.65883 14.5561Z" fill="white"/>
<path d="M61.6469 16.4247C61.6076 16.4932 60.5693 17.0297 60.4066 17.0012C60.3112 16.9841 59.5928 15.6371 59.3178 15.3517C56.3544 12.2753 51.0227 14.0789 50.0461 18.234C48.4354 25.1059 57.23 28.7644 60.4683 22.5832C60.9847 22.6745 61.8995 22.8857 61.703 23.485C61.153 25.1687 58.4198 26.8638 56.7417 27.0522C51.4605 27.6458 47.8292 24.0786 48.3624 18.7078C48.8956 13.3369 54.7156 10.8656 59.0652 13.2856C59.677 13.628 62.0622 15.6999 61.6469 16.419V16.4247Z" fill="white"/>
<path d="M68.4943 12.6601H71.4723C71.461 12.925 71.5683 14.0667 71.2688 14.0667H68.4943V24.2486C68.4943 24.3486 68.8729 25.0431 68.9803 25.149C69.438 25.6317 70.2404 25.6552 70.8563 25.5669C71.4723 25.4786 72.0034 24.7842 72.2916 25.5081C72.6759 26.4792 72.4216 26.6145 71.5909 26.8853C69.2798 27.6268 67.2229 26.5674 67.0082 23.9661C66.7426 20.8056 67.2116 17.2567 67.0082 14.0609C66.3245 13.9314 65.2113 14.4552 65.1039 13.5783C64.9287 12.1422 66.0702 12.7896 67.0082 12.6601V9.01114C67.2794 9.0288 68.5 8.89932 68.5 9.22302V12.666L68.4943 12.6601Z" fill="white"/>
<path d="M92.5957 12.6693H94.1404L94.2106 14.4346C95.2228 12.5839 97.5223 12.0201 99.535 12.5383C101.179 12.9654 103.432 15.6191 100.74 16.1999C100.424 14.2524 98.8973 13.3071 96.9138 13.9221C92.5606 15.2717 94.8718 22.6005 94.2516 26.0229C94.117 26.7461 92.6074 26.3588 92.6074 26.188V12.6693H92.5957Z" fill="white"/>
</svg>
