<svg width="187" height="40" viewBox="0 0 187 40" fill="none" xmlns="http://www.w3.org/2000/svg">
<g clip-path="url(#clip0_4211_46528)">
<path d="M44.1689 32.3241V26.2001H45.0405V28.576C45.1767 28.422 45.3414 28.2928 45.5259 28.1993C45.8041 28.0535 46.1192 27.9848 46.4371 27.9985C46.8374 27.9848 47.2348 28.0893 47.5727 28.2983C47.8821 28.5017 48.1205 28.7877 48.2653 29.1232C48.4243 29.4835 48.5038 29.8712 48.4981 30.2644C48.5066 30.6907 48.3959 31.1114 48.1773 31.4799C47.9672 31.8291 47.6607 32.1151 47.2916 32.3049C46.8828 32.5111 46.4286 32.6129 45.9687 32.6046C45.6252 32.6046 45.2789 32.5799 44.9411 32.5194C44.6771 32.4809 44.4188 32.4149 44.1689 32.3241ZM45.0206 30.0169V31.7521C45.1114 31.7769 45.2221 31.8044 45.3556 31.8319C45.5486 31.8649 45.7445 31.8814 45.9404 31.8759C46.386 31.8951 46.8232 31.7329 47.1383 31.4249C47.4421 31.1169 47.6039 30.7044 47.5897 30.2782C47.5897 30.0224 47.5471 29.7695 47.4591 29.5275C47.3739 29.3102 47.232 29.1205 47.0418 28.9775C46.8289 28.8235 46.5677 28.7437 46.3009 28.7492C46.0539 28.741 45.8098 28.8015 45.5997 28.928C45.4152 29.0407 45.2676 29.203 45.1739 29.3955C45.083 29.5852 45.0348 29.7942 45.0319 30.0032L45.0206 30.0169Z" fill="white"/>
<path d="M48.8609 34.1226L49.2583 33.5313C49.3264 33.5918 49.4002 33.6413 49.4797 33.6826C49.5762 33.7293 49.6813 33.7513 49.7892 33.7486C49.9879 33.7541 50.1696 33.6468 50.2547 33.4736C50.3938 33.2234 50.5187 32.9649 50.6238 32.7009L50.7402 32.4259L48.7246 28.0975H49.7239L51.1773 31.3974L52.4548 28.0975H53.4058L51.6031 32.3516C51.518 32.5469 51.4328 32.7641 51.342 33.0034C51.2511 33.2426 51.1461 33.4736 51.0212 33.6991C50.9076 33.9136 50.7487 34.1033 50.55 34.2491C50.3456 34.3948 50.0957 34.4691 49.8403 34.4608C49.6472 34.4663 49.4542 34.4333 49.2725 34.3701C49.1192 34.3151 48.9801 34.2298 48.8609 34.1226Z" fill="white"/>
<path d="M63.1289 28.334C63.2084 28.3533 63.285 28.3753 63.3617 28.4055L63.9663 26.6016C64.0402 26.6318 64.1168 26.6676 64.1878 26.7033L64.7555 25.0286C64.6874 24.9791 64.6164 24.9351 64.5455 24.8912L65.1927 22.9662L64.9628 22.892L64.3269 24.7619C64.2559 24.7207 64.1849 24.6794 64.1111 24.6409L63.5065 26.4393L63.7392 26.5108L63.1289 28.334Z" fill="white"/>
<path d="M67.2796 29.6402V29.4037H66.0874C66.0874 29.4834 66.0874 29.5604 66.1044 29.6402H64.3018V29.8767H66.1044C66.1044 29.9564 66.1044 30.0362 66.0874 30.1132H67.2796V29.8767H70.2121V29.6402H67.2796Z" fill="white"/>
<path d="M62.8985 31.2241H62.6572V33.2123H62.4131V35.459C62.4954 35.4452 62.5749 35.426 62.6572 35.4067V36.9494H62.8985V35.349L63.1427 35.2802V33.1491C63.0632 33.1491 62.9808 33.1738 62.8985 33.1821V31.2241Z" fill="white"/>
<path d="M62.4273 31.1828C62.3478 31.1636 62.2711 31.1416 62.1973 31.1113L61.5359 33.0775C61.4564 33.0583 61.3797 33.0335 61.3031 33.006L60.4657 35.5084C60.5451 35.5084 60.6303 35.5277 60.7126 35.5332L60.3691 36.5589L60.5991 36.6331L60.9624 35.5524H61.2151L62.0156 33.1683C61.9333 33.1683 61.8538 33.1408 61.7743 33.1243L62.4273 31.1828Z" fill="white"/>
<path d="M66.4273 26.761L65.2918 27.564C65.3457 27.6245 65.394 27.685 65.4394 27.751L63.9434 28.807C63.9945 28.8675 64.0427 28.9307 64.0853 28.9967L65.5757 27.949C65.6182 28.015 65.6608 28.0837 65.6977 28.1552L66.7708 27.399C66.7367 27.3248 66.6998 27.2533 66.6629 27.1818L68.8715 25.6281L68.6983 25.4493L66.521 26.981C66.4954 26.9013 66.4557 26.8243 66.4273 26.761Z" fill="white"/>
<path d="M64.488 26.8766C64.5562 26.9206 64.6186 26.9673 64.6839 27.0168L63.5654 28.51C63.6336 28.5513 63.6989 28.598 63.7613 28.6475L64.8741 27.1653C64.9337 27.2176 64.9962 27.2698 65.0558 27.3276L65.9529 26.1286C65.9018 26.0654 65.845 26.0049 65.791 25.9444L67.2388 24.0195L67.0401 23.882L65.6207 25.7739C65.5639 25.7161 65.5072 25.6556 65.4475 25.6006L64.488 26.8766Z" fill="white"/>
<path d="M67.0098 28.0536L65.8146 28.4303C65.8459 28.5018 65.8743 28.576 65.8998 28.653L64.1738 29.203C64.2051 29.2745 64.2306 29.3515 64.2476 29.4285L65.9708 28.8785C65.9907 28.9555 66.0105 29.0325 66.0247 29.1095L67.1801 28.7493C67.1659 28.6695 67.1489 28.5925 67.1318 28.5155L69.8741 27.6493L69.8003 27.4238L67.0751 28.2818C67.0524 28.1993 67.0353 28.1306 67.0098 28.0536Z" fill="white"/>
<path d="M62.6572 26.3101V28.301C62.697 28.2982 62.7395 28.2982 62.7793 28.301C62.819 28.301 62.8588 28.301 62.8985 28.301V26.3266C62.9808 26.3266 63.0632 26.3431 63.1427 26.3568V24.2421L62.8985 24.1734V22.5702H62.6572V24.1129L62.4131 24.0579V26.3073H62.6572V26.3101Z" fill="white"/>
<path d="M60.4657 24.0083L61.3031 26.5107C61.3797 26.4832 61.4564 26.4612 61.5359 26.4392L62.1973 28.4054C62.2711 28.3779 62.3478 28.3532 62.4273 28.3339L61.7743 26.3815C61.8538 26.365 61.9333 26.3512 62.0156 26.3402L61.2151 23.9561H60.9624L60.5991 22.8754L60.3691 22.9496L60.7126 23.9753C60.6303 23.9918 60.5451 23.9973 60.4657 24.0083Z" fill="white"/>
<path d="M56.7532 25.9581L59.5154 27.9023C59.5608 27.8335 59.6091 27.773 59.6573 27.7098L61.4883 28.9967C61.5309 28.9307 61.5792 28.8647 61.6331 28.807L59.8106 27.5228C59.8617 27.4623 59.9157 27.4018 59.9724 27.344L57.2699 25.4493C57.2103 25.5043 57.1507 25.5593 57.0939 25.6171L56.8469 25.4438L56.7021 25.6336L56.9207 25.7876C56.864 25.8398 56.8072 25.8976 56.7532 25.9581Z" fill="white"/>
<path d="M65.9529 33.391L65.0558 32.1921L64.8741 32.3516L63.7613 30.8694C63.6989 30.9216 63.6336 30.9684 63.5654 31.0096L64.6839 32.5001C64.6215 32.5496 64.5562 32.5963 64.488 32.6403L65.4504 33.9245C65.51 33.8695 65.5668 33.8118 65.6236 33.754L67.0429 35.646L67.2417 35.5057L65.7939 33.5808C65.8592 33.5148 65.9018 33.4543 65.9529 33.391Z" fill="white"/>
<path d="M59.9724 32.1728C59.9157 32.1151 59.8617 32.0546 59.8106 31.9941L61.6331 30.7126C61.5792 30.6521 61.5309 30.5889 61.4883 30.5201L59.6573 31.8098C59.6091 31.7466 59.5608 31.6834 59.5154 31.6174L56.7532 33.5615C56.8072 33.622 56.864 33.677 56.9207 33.7348L56.7021 33.8888L56.8469 34.0813L57.0939 33.908C57.1507 33.963 57.2103 34.0208 57.2699 34.073L59.9724 32.1728Z" fill="white"/>
<path d="M64.7497 34.491L64.1819 32.8135C64.1109 32.852 64.0343 32.885 63.9605 32.918L63.353 31.1113C63.2792 31.1416 63.2025 31.1636 63.123 31.1828L63.7334 33.006C63.6567 33.0335 63.5801 33.0583 63.5006 33.0803L64.1053 34.8759C64.1791 34.8375 64.25 34.7962 64.321 34.755L64.9512 36.6331L65.1812 36.5589L64.5339 34.634C64.6106 34.5817 64.6815 34.5377 64.7497 34.491Z" fill="white"/>
<path d="M66.7542 32.1206L65.6811 31.3644C65.6442 31.4331 65.6016 31.5019 65.5591 31.5706L64.0687 30.5201C64.0261 30.5889 63.9779 30.6521 63.9268 30.7126L65.4228 31.7658C65.3774 31.8318 65.3291 31.8951 65.2752 31.9556L66.4107 32.7558C66.4533 32.6871 66.493 32.6183 66.5299 32.5468L68.7073 34.0813L68.8521 33.8888L66.6492 32.3241C66.6832 32.2636 66.7116 32.1921 66.7542 32.1206Z" fill="white"/>
<path d="M67.1801 30.7704L66.0247 30.3992C66.0105 30.4789 65.9907 30.5559 65.9708 30.6302L64.2476 30.0802C64.2306 30.1572 64.2051 30.2342 64.1738 30.3057L65.8998 30.8557C65.8743 30.9299 65.8459 31.0042 65.8146 31.0757L67.0098 31.4524C67.0353 31.3782 67.0552 31.3012 67.0751 31.2242L69.8003 32.0821L69.8741 31.8566L67.1318 30.9932C67.1489 30.9272 67.1659 30.8502 67.1801 30.7704Z" fill="white"/>
<path d="M58.4793 24.6243L60.3018 27.0552C60.3671 27.0057 60.4324 26.959 60.5005 26.915L61.7978 28.6447C61.8603 28.5952 61.9256 28.5484 61.9965 28.5072L60.7049 26.7857C60.7759 26.7473 60.8468 26.706 60.9206 26.6703L59.1606 24.3273C59.0839 24.3548 59.0073 24.3878 58.9307 24.4208L58.519 23.8708L58.3203 24.0083L58.7035 24.5198L58.4793 24.6243Z" fill="white"/>
<path d="M58.9589 29.8767H61.2725V29.6402H58.9589C58.9589 29.5604 58.9589 29.4834 58.9759 29.4037H55.3564V30.1242H58.9759C58.9674 30.0362 58.9617 29.9564 58.9589 29.8767Z" fill="white"/>
<path d="M59.1182 28.73L61.3183 29.4202C61.3353 29.3432 61.3609 29.269 61.3921 29.1947L59.2091 28.5072C59.2374 28.433 59.2687 28.3615 59.3027 28.29L55.8962 27.2175C55.7883 27.432 55.6946 27.6493 55.6123 27.8748L59.0472 28.9582C59.0728 28.8812 59.0955 28.807 59.1182 28.73Z" fill="white"/>
<path d="M60.9178 32.8438C60.844 32.8081 60.773 32.7696 60.7021 32.7283L61.9937 31.0069C61.9227 30.9656 61.8574 30.9216 61.795 30.8694L60.4977 32.5991C60.4295 32.5551 60.3642 32.5083 60.2989 32.4588L58.4793 34.8897C58.5531 34.9282 58.6269 34.9612 58.7035 34.997L58.3203 35.5057L58.519 35.646L58.9307 35.096L59.1606 35.1895L60.9178 32.8438Z" fill="white"/>
<path d="M59.2005 31.0098L61.3836 30.3223C61.3523 30.2508 61.3268 30.1738 61.3098 30.0968L59.1182 30.787C59.0955 30.7128 59.0728 30.6358 59.0529 30.5588L55.6123 31.6422C55.6946 31.8677 55.7883 32.085 55.8962 32.2995L59.3027 31.2298C59.2601 31.1583 59.2289 31.084 59.2005 31.0098Z" fill="white"/>
<path d="M108.084 26.2028H109.009V28.8207H112.546V26.2028H113.478V32.4615H112.546V29.6264H109.009V32.4615H108.081V26.2028H108.084Z" fill="white"/>
<path d="M118.926 31.8236C118.855 31.9006 118.776 31.9749 118.693 32.0409C118.571 32.1399 118.438 32.2251 118.293 32.2939C118.106 32.3819 117.913 32.4534 117.711 32.5056C117.464 32.5688 117.211 32.5991 116.959 32.5991C116.63 32.6046 116.306 32.5468 115.999 32.4314C115.718 32.3241 115.463 32.1619 115.253 31.9501C115.043 31.7384 114.878 31.4854 114.773 31.2104C114.657 30.9052 114.6 30.5807 114.603 30.2534C114.603 29.9482 114.657 29.6429 114.767 29.357C114.975 28.8152 115.4 28.3807 115.945 28.1497C116.232 28.0288 116.539 27.9683 116.851 27.971C117.197 27.96 117.541 28.037 117.85 28.1882C118.12 28.3257 118.353 28.521 118.532 28.7602C118.716 29.0077 118.849 29.2882 118.926 29.5852C119.011 29.8987 119.051 30.2204 119.051 30.5422H115.485C115.488 30.7319 115.534 30.9189 115.616 31.0921C115.696 31.2516 115.806 31.3946 115.943 31.5129C116.079 31.6311 116.238 31.7219 116.408 31.7879C116.584 31.8566 116.771 31.8924 116.959 31.8896C117.282 31.9006 117.606 31.8374 117.898 31.7026C118.097 31.6091 118.276 31.4881 118.432 31.3369L118.926 31.8236ZM118.143 29.8987C118.123 29.5797 117.992 29.2745 117.774 29.0352C117.532 28.7905 117.192 28.6612 116.842 28.6805C116.647 28.675 116.454 28.7107 116.275 28.7822C116.116 28.8482 115.974 28.939 115.852 29.0572C115.738 29.17 115.647 29.302 115.582 29.4477C115.52 29.5907 115.483 29.7447 115.474 29.9014H118.143V29.8987Z" fill="white"/>
<path d="M122.832 31.9364C122.661 32.1564 122.431 32.3269 122.167 32.4259C121.898 32.5304 121.608 32.5854 121.316 32.5854C121.123 32.5854 120.932 32.5607 120.748 32.5139C120.566 32.4672 120.393 32.3902 120.243 32.2802C120.089 32.1674 119.964 32.0217 119.876 31.8567C119.777 31.6614 119.729 31.4442 119.734 31.2242C119.717 30.7925 119.905 30.3772 120.243 30.0968C120.666 29.7888 121.185 29.6403 121.713 29.6733H122.042L122.372 29.6925C122.474 29.6925 122.565 29.6925 122.641 29.7118L122.806 29.7283V29.5743C122.832 29.3075 122.718 29.0435 122.502 28.8758C122.255 28.7245 121.966 28.6503 121.673 28.6641C121.395 28.6531 121.117 28.6998 120.859 28.8015C120.683 28.8785 120.515 28.9693 120.356 29.0765L119.947 28.5046C120.038 28.4358 120.132 28.3726 120.231 28.3176C120.356 28.2488 120.484 28.1911 120.62 28.1443C120.785 28.0866 120.952 28.0426 121.123 28.0123C121.338 27.9766 121.554 27.9601 121.773 27.9601C122.267 27.9326 122.752 28.0783 123.144 28.3698C123.485 28.6613 123.669 29.0875 123.643 29.5275V32.4562H122.829V31.9364H122.832ZM122.832 30.3965L122.681 30.3745C122.607 30.3745 122.522 30.358 122.426 30.3497L122.116 30.3305H121.795C121.594 30.325 121.392 30.3525 121.199 30.4157C121.066 30.4597 120.944 30.534 120.842 30.6275C120.759 30.7017 120.697 30.798 120.663 30.9025C120.632 30.9987 120.614 31.0977 120.614 31.1967C120.597 31.4085 120.691 31.6147 120.864 31.7467C121.072 31.8787 121.316 31.9419 121.563 31.9282C121.727 31.9282 121.889 31.9007 122.042 31.8457C122.187 31.7934 122.323 31.7164 122.446 31.6202C122.562 31.5295 122.656 31.4167 122.729 31.2902C122.798 31.172 122.834 31.04 122.834 30.9052V30.3965H122.832Z" fill="white"/>
<path d="M124.848 26.2028H125.719V32.4615H124.848V26.2028Z" fill="white"/>
<path d="M127.308 28.8015H126.493V28.0975H127.308V26.6703H128.179V28.0975H129.497V28.8015H128.179V30.9491C128.154 31.2021 128.213 31.4551 128.347 31.6724C128.469 31.8044 128.645 31.8759 128.827 31.8676C128.969 31.8731 129.113 31.8484 129.244 31.7934C129.366 31.7356 129.477 31.6586 129.573 31.5679L129.971 32.0849C129.809 32.2443 129.616 32.3736 129.403 32.4643C129.179 32.5468 128.94 32.5881 128.702 32.5826C128.31 32.6156 127.924 32.4781 127.649 32.2058C127.399 31.8649 127.28 31.4496 127.316 31.0316L127.308 28.8015Z" fill="white"/>
<path d="M130.63 26.2028H131.482V28.7492C131.542 28.6722 131.613 28.5924 131.695 28.5044C131.786 28.4109 131.891 28.3284 132.004 28.2597C132.138 28.1799 132.283 28.1167 132.433 28.0727C132.612 28.0204 132.796 27.9929 132.984 27.9957C133.475 27.9572 133.958 28.1414 134.293 28.4934C134.599 28.8812 134.755 29.3624 134.73 29.8491V32.467H133.858V29.9096C133.884 29.5879 133.782 29.2662 133.574 29.0132C133.373 28.8179 133.095 28.7162 132.811 28.7382C132.589 28.7299 132.374 28.7822 132.18 28.8867C132.016 28.9829 131.877 29.1177 131.777 29.2772C131.672 29.4476 131.599 29.6346 131.559 29.8271C131.513 30.0334 131.491 30.2424 131.491 30.4514V32.478H130.619L130.63 26.2028Z" fill="white"/>
<path d="M92.9384 32.3544C93.0719 32.4506 93.2223 32.5194 93.3841 32.5579C93.5374 32.5964 93.6936 32.6156 93.8497 32.6184C94.1109 32.6239 94.372 32.5854 94.6162 32.4974C94.8489 32.3984 95.0562 32.2499 95.2237 32.0656L95.3684 31.9199L95.4422 32.4699H96.8446V29.8107C96.8503 29.533 96.7992 29.2607 96.6942 29.0022C96.6005 28.7823 96.4557 28.587 96.2712 28.4275C96.081 28.268 95.8595 28.1498 95.6183 28.0783C95.3429 27.9985 95.0562 27.96 94.7666 27.9628C94.3096 27.949 93.8554 28.0123 93.421 28.1498C93.1599 28.2378 92.9129 28.3588 92.6829 28.5073L93.2081 29.2992C93.3614 29.2112 93.5261 29.1397 93.6964 29.0847C93.9604 29.005 94.2386 28.9637 94.5168 28.9692C94.6133 28.9692 94.707 28.9775 94.8007 28.994C94.9 29.0105 94.9966 29.0435 95.0846 29.0902C95.1754 29.1425 95.252 29.2112 95.3088 29.2965C95.3713 29.3982 95.4025 29.5165 95.3997 29.6347V29.83H95.289C95.1754 29.83 95.076 29.8052 94.988 29.7997C94.9 29.7942 94.7808 29.7997 94.6304 29.7997C94.3493 29.7997 94.0711 29.8327 93.7986 29.9015C93.5545 29.9565 93.3245 30.0472 93.1116 30.1737C92.9186 30.303 92.7596 30.4734 92.646 30.6742C92.5325 30.8804 92.4729 31.1142 92.4786 31.3479C92.47 31.5652 92.5155 31.7796 92.6091 31.9776C92.6858 32.1261 92.7993 32.2554 92.9384 32.3544ZM94.1563 30.6412C94.355 30.5064 94.5963 30.4432 94.8376 30.4597C94.9994 30.4569 95.1612 30.4707 95.3202 30.5009L95.3968 30.5174V30.8942C95.3997 31.0234 95.3741 31.1527 95.323 31.2737C95.2776 31.3699 95.2123 31.4552 95.1328 31.5239C95.0533 31.5872 94.9625 31.6339 94.8631 31.6587C94.7695 31.6834 94.6758 31.6972 94.5793 31.6972C94.2698 31.7467 93.9774 31.5432 93.9292 31.2434C93.9207 31.1967 93.9207 31.1472 93.9235 31.0977C93.9235 30.9189 94.0087 30.7484 94.1563 30.6412Z" fill="white"/>
<path d="M89.6152 32.6183C89.8621 32.6183 90.1091 32.5936 90.3504 32.5468C90.5832 32.5028 90.8074 32.4231 91.0118 32.3103C91.202 32.2058 91.3638 32.0601 91.4859 31.8869C91.608 31.6944 91.6704 31.4689 91.6619 31.2434C91.6619 31.1031 91.6477 30.9629 91.6165 30.8254C91.5853 30.6989 91.5285 30.5834 91.449 30.4789C91.3525 30.3607 91.2389 30.2617 91.1084 30.1819C90.9324 30.0747 90.7393 29.9894 90.5406 29.9317C90.3816 29.8794 90.2312 29.8354 90.0949 29.8024C89.9586 29.7694 89.8281 29.7309 89.7202 29.6924C89.618 29.6622 89.5215 29.6154 89.4363 29.5522C89.3483 29.4889 89.2972 29.3844 89.3029 29.2772C89.3029 29.0325 89.5101 28.9087 89.9217 28.9087C90.1432 28.9087 90.3646 28.9527 90.5718 29.0325C90.7393 29.0985 90.9011 29.1755 91.0601 29.2607L91.537 28.411C91.2957 28.2652 91.0374 28.1525 90.7677 28.0727C90.4384 27.982 90.0949 27.9352 89.7514 27.9407C89.4817 27.938 89.2149 27.9737 88.9566 28.048C88.738 28.1085 88.5336 28.2075 88.3491 28.3367C88.1929 28.4495 88.0623 28.5925 87.9658 28.7575C87.8778 28.9115 87.8324 29.082 87.8324 29.2579C87.8324 29.4202 87.8636 29.5824 87.9289 29.7309C87.9942 29.8657 88.085 29.9867 88.1986 30.0857C88.3263 30.1984 88.4711 30.2892 88.6273 30.3607C88.8089 30.4459 88.9991 30.5119 89.195 30.5642C89.459 30.6384 89.7173 30.7264 89.97 30.8254C90.129 30.8666 90.2425 31.0014 90.2539 31.1609C90.2681 31.3259 90.1602 31.4744 89.9984 31.5211C89.8451 31.5651 89.6861 31.5871 89.5243 31.5844C89.4079 31.5844 89.2944 31.5706 89.1808 31.5486C89.0531 31.5239 88.9253 31.4936 88.8004 31.4551C88.6727 31.4139 88.5506 31.3671 88.4314 31.3094C88.3547 31.2709 88.2809 31.2296 88.21 31.1829L87.5996 32.0601C87.8551 32.2443 88.1447 32.3791 88.4512 32.4561C88.8288 32.5606 89.2206 32.6128 89.6152 32.6183Z" fill="white"/>
<path d="M104.118 31.4635C104.169 31.6917 104.275 31.9035 104.425 32.0877C104.575 32.2664 104.771 32.4039 104.993 32.4892C105.285 32.5964 105.597 32.6459 105.91 32.6377C106.171 32.6377 106.432 32.5937 106.676 32.5057C106.895 32.4314 107.099 32.3269 107.286 32.1977L106.719 31.348C106.648 31.3865 106.577 31.4222 106.503 31.4552C106.392 31.5047 106.27 31.5322 106.148 31.5322C105.819 31.5597 105.526 31.326 105.498 31.007C105.495 30.963 105.495 30.919 105.501 30.875V29.1728H106.659V28.1058H105.518V26.8381H104.028V28.1058H103.332V29.1728H104.022V30.644C104.022 30.919 104.053 31.194 104.118 31.4635Z" fill="white"/>
<path d="M99.9509 29.3157C100.084 29.2635 100.226 29.2387 100.371 29.2415C100.584 29.2277 100.791 29.3185 100.919 29.4862C101.035 29.665 101.089 29.8712 101.081 30.0802V32.4616H102.571V29.6952C102.577 29.4285 102.534 29.1617 102.446 28.9087C102.375 28.7107 102.262 28.532 102.111 28.3835C101.966 28.2488 101.793 28.147 101.603 28.0865C101.393 28.0205 101.172 27.9875 100.95 27.9903C100.854 27.9903 100.76 28.0013 100.666 28.0178C100.547 28.0398 100.433 28.07 100.32 28.1113C100.198 28.1553 100.079 28.213 99.9708 28.2845C99.8629 28.3615 99.7664 28.455 99.6869 28.5595L99.5393 28.7327L99.4626 28.1195H98.0205V32.4616H99.5109V30.1242C99.5109 30.0197 99.5222 29.918 99.5478 29.8162C99.5733 29.7117 99.6216 29.6127 99.6897 29.5247C99.7578 29.4367 99.8487 29.3652 99.9509 29.3157Z" fill="white"/>
<path d="M82.9525 30.4597C82.9582 30.0802 82.9014 29.7035 82.7793 29.3433C82.6771 29.0545 82.5153 28.7905 82.3052 28.565C82.1094 28.3616 81.8709 28.2048 81.6041 28.1058C81.3259 28.0041 81.0335 27.9518 80.7354 27.9518C80.3777 27.9436 80.02 28.0151 79.6936 28.1553C79.4125 28.2818 79.1627 28.4633 78.9583 28.6888C78.7624 28.9088 78.6148 29.1645 78.5211 29.4395C78.4246 29.7173 78.3763 30.0087 78.3763 30.303C78.3366 30.9355 78.5751 31.5569 79.035 32.0107C79.4721 32.4122 80.1194 32.6184 80.954 32.6184C81.1697 32.6184 81.3826 32.6019 81.5955 32.5662C81.7801 32.5359 81.9646 32.4947 82.1434 32.4424C82.2882 32.4012 82.4301 32.3517 82.5664 32.2912C82.6459 32.2554 82.7197 32.2224 82.7821 32.1894L82.3393 31.2984C82.1832 31.3727 82.0214 31.4332 81.8567 31.4799C81.5927 31.5569 81.3202 31.5927 81.0448 31.5899C80.8461 31.5927 80.6502 31.5707 80.46 31.5184C80.3152 31.4772 80.1818 31.4112 80.0654 31.3204C79.9718 31.2462 79.8979 31.1527 79.8497 31.0455C79.8099 30.9575 79.7844 30.8667 79.7759 30.7705V30.666H82.961L82.9525 30.4597ZM81.6523 29.9097H79.7872V29.8135C79.7872 29.72 79.8071 29.6265 79.844 29.5385C79.8809 29.4368 79.9377 29.3433 80.0115 29.2635C80.091 29.181 80.1875 29.1123 80.2954 29.0628C80.6729 28.8895 81.1215 28.9693 81.411 29.2635C81.4905 29.3433 81.5501 29.4368 81.587 29.5385C81.6239 29.6265 81.6438 29.72 81.6438 29.8135L81.6523 29.9097Z" fill="white"/>
<path d="M76.8232 26.2001L75.3527 30.9162L73.7801 26.2001H72.0654L74.4103 32.4616H76.1391L78.4953 26.2001H76.8232Z" fill="white"/>
<path d="M86.5838 29.2497C86.7201 29.2497 86.8564 29.2634 86.9898 29.2882L87.18 28.0782C87.1289 28.0644 87.0778 28.0534 87.0239 28.0479C86.9131 28.0342 86.8024 28.0287 86.6917 28.0287C86.4589 28.0204 86.229 28.0809 86.0331 28.2019C85.8514 28.3174 85.6925 28.4659 85.5647 28.6364L85.4114 28.8454L85.3348 28.1057H83.8955V32.4615H85.3859V30.5174C85.3916 29.6759 85.7947 29.2497 86.5838 29.2497Z" fill="white"/>
<path d="M136.031 27.4568C135.935 27.4568 135.838 27.4375 135.747 27.4045C135.659 27.3715 135.58 27.322 135.512 27.2588C135.444 27.1955 135.393 27.1213 135.359 27.036C135.322 26.948 135.302 26.8545 135.302 26.7611C135.302 26.6621 135.319 26.5631 135.359 26.4696C135.393 26.3843 135.444 26.3101 135.512 26.2468C135.58 26.1836 135.659 26.1341 135.747 26.1011C135.838 26.0681 135.935 26.0488 136.031 26.0488C136.128 26.0488 136.224 26.0681 136.315 26.1011C136.403 26.1341 136.483 26.1836 136.551 26.2468C136.619 26.3101 136.67 26.3843 136.704 26.4696C136.741 26.5631 136.761 26.6621 136.758 26.7611C136.758 26.8545 136.741 26.948 136.704 27.036C136.67 27.1213 136.619 27.1955 136.551 27.2588C136.483 27.322 136.403 27.3715 136.315 27.4045C136.224 27.4375 136.128 27.454 136.031 27.4568ZM136.031 27.2835C136.105 27.2835 136.179 27.2698 136.25 27.245C136.312 27.2203 136.372 27.1818 136.42 27.135C136.469 27.0855 136.505 27.0278 136.531 26.9645C136.559 26.8958 136.574 26.8243 136.574 26.7501C136.574 26.6758 136.559 26.5988 136.531 26.5301C136.505 26.4668 136.469 26.4091 136.42 26.3596C136.372 26.3128 136.312 26.2743 136.25 26.2496C136.179 26.2248 136.105 26.2111 136.031 26.2111C135.958 26.2111 135.884 26.2248 135.813 26.2496C135.75 26.2743 135.691 26.3128 135.642 26.3596C135.594 26.4091 135.554 26.4668 135.529 26.5301C135.503 26.6016 135.489 26.6758 135.489 26.7501C135.489 26.8243 135.5 26.8958 135.529 26.9645C135.554 27.0278 135.594 27.0855 135.642 27.135C135.691 27.1818 135.75 27.2203 135.813 27.245C135.884 27.2698 135.958 27.2835 136.031 27.2835ZM135.773 26.3788H136.057C136.122 26.3761 136.185 26.3953 136.233 26.4366C136.278 26.4751 136.304 26.5328 136.301 26.5906C136.301 26.6373 136.29 26.6841 136.264 26.7226C136.239 26.7556 136.207 26.7831 136.168 26.7996L136.344 27.0745H136.162L136.006 26.8271H135.918V27.0745H135.762L135.773 26.3788ZM136.02 26.7006C136.054 26.7006 136.088 26.6951 136.119 26.6786C136.145 26.6593 136.159 26.6263 136.153 26.5961C136.156 26.5686 136.145 26.5411 136.125 26.5218C136.102 26.5081 136.077 26.4998 136.051 26.4998H135.929V26.7006H136.02Z" fill="white"/>
<path d="M56.9014 8.38074V17.5517H60.0382V15.7862V8.38074H56.9014Z" fill="white"/>
<path d="M56.7529 4.36584V6.67302H60.185V5.33656V4.36584H56.7529Z" fill="white"/>
<path d="M53.9995 10.7869C54.2862 10.7869 54.5701 10.8144 54.8511 10.8666L55.2543 8.32022C55.1464 8.29272 55.0328 8.27072 54.9221 8.25697C54.6922 8.22947 54.4594 8.21572 54.2266 8.21847C53.7355 8.20197 53.2529 8.32847 52.8384 8.58146C52.4552 8.8262 52.1231 9.13694 51.8562 9.49993L51.5354 9.93716L51.3821 8.38072H48.3418V17.5517H51.4787V13.4543C51.4787 11.6999 52.3275 10.7869 53.9995 10.7869Z" fill="white"/>
<path d="M80.0171 10.7869C80.3038 10.7869 80.5877 10.8144 80.8687 10.8666L81.269 8.32022C81.1611 8.29272 81.0476 8.27072 80.9368 8.25697C80.7069 8.22947 80.4741 8.21572 80.2413 8.21847C79.7502 8.20197 79.2676 8.32847 78.8532 8.58146C78.4699 8.8262 78.1406 9.13694 77.8738 9.49993L77.553 9.93716L77.3884 8.38347H74.3594V17.5517H77.4991V13.4543C77.4991 11.6999 78.3507 10.7869 80.0171 10.7869Z" fill="white"/>
<path d="M70.8881 9.4806C70.4339 9.03237 69.8945 8.67763 69.2955 8.43564C67.9698 7.92966 66.4937 7.92966 65.1679 8.43564C64.569 8.67763 64.0268 9.03237 63.5725 9.4806C63.124 9.93159 62.772 10.4651 62.5335 11.0453C62.0396 12.2828 62.0396 13.6577 62.5335 14.8952C62.7748 15.4726 63.1269 16.0006 63.5725 16.4489C64.0268 16.8971 64.569 17.2546 65.1679 17.4938C66.4937 18.0026 67.9698 18.0026 69.2955 17.4938C69.8945 17.2518 70.4339 16.8971 70.8881 16.4489C71.3338 16.0006 71.6886 15.4726 71.9271 14.8952C72.4267 13.6577 72.4267 12.2828 71.9271 11.0453C71.6886 10.4651 71.3366 9.93159 70.8881 9.4806ZM68.7988 14.6064C67.9869 15.4424 66.6271 15.4809 65.7641 14.6917C65.7329 14.6642 65.7045 14.6339 65.6761 14.6064C65.2843 14.1417 65.0828 13.556 65.1083 12.9565C65.0828 12.357 65.2843 11.7713 65.6761 11.3065C66.488 10.4706 67.8478 10.4321 68.7108 11.2213C68.742 11.2488 68.7704 11.279 68.7988 11.3065C69.1905 11.7713 69.3949 12.357 69.3665 12.9565C69.3949 13.556 69.1905 14.1444 68.7988 14.6064Z" fill="white"/>
<path d="M29.1885 17.7496C29.4695 17.799 29.7534 17.8265 30.0401 17.8265C30.7186 17.832 31.3914 17.7166 32.0273 17.4828C32.6263 17.2656 33.1713 16.9301 33.6284 16.4983C34.0968 16.0501 34.4601 15.5111 34.6957 14.9171C34.9626 14.2269 35.096 13.4927 35.0818 12.753C35.0818 12.1645 34.9853 11.5815 34.7979 11.0205C34.6276 10.4953 34.3608 10.0031 34.0116 9.56583C33.2849 8.67211 32.1664 8.16338 30.9911 8.19088C30.8265 8.19363 30.6647 8.20738 30.5028 8.22938C30.2956 8.25963 30.0912 8.31188 29.8953 8.38337C29.6626 8.46862 29.4411 8.58137 29.2396 8.72161C29.0153 8.87561 28.8223 9.0681 28.6718 9.29084L28.388 9.71983L28.1921 8.38062H25.1631V21.6269H28.2858V17.5516L28.5498 17.6203C28.6889 17.6588 28.9018 17.7056 29.1885 17.7496ZM28.2999 15.1454V12.7832C28.2829 12.2717 28.4305 11.7685 28.7258 11.3423C29.0693 10.9133 29.6115 10.6823 30.1707 10.7263C30.4546 10.7208 30.7356 10.795 30.9769 10.9408C31.1927 11.0783 31.3744 11.2598 31.5106 11.4715C31.6526 11.6888 31.7548 11.928 31.8144 12.1782C31.8711 12.4175 31.9024 12.6595 31.9024 12.9042C31.9024 13.7842 31.698 14.4332 31.2949 14.8292C30.8861 15.2306 30.3212 15.4506 29.7364 15.4314C29.285 15.4451 28.8336 15.3709 28.4135 15.2086L28.2999 15.1454Z" fill="white"/>
<path d="M10.7108 15.4149C10.9946 14.9144 11.1394 14.3534 11.1366 13.7815C11.1564 13.1847 11.0372 12.5908 10.7874 12.0463C10.5603 11.6008 10.2452 11.202 9.86196 10.8748C9.4844 10.5558 9.05574 10.3001 8.59302 10.1158C8.10474 9.92059 7.62215 9.74735 7.15659 9.6016L6.48663 9.39811C6.18856 9.30186 5.91888 9.21112 5.635 9.12312C5.38802 9.04337 5.1524 8.93888 4.93098 8.80963C4.7351 8.69689 4.56761 8.54564 4.43703 8.36415C4.30928 8.1689 4.24683 7.94066 4.25818 7.70967C4.25251 7.49793 4.31212 7.29168 4.43135 7.11569C4.5449 6.96445 4.68968 6.8407 4.85717 6.74995C5.03034 6.65646 5.21486 6.58771 5.40789 6.54646C5.60093 6.49971 5.80249 6.47771 6.0012 6.47496C6.59451 6.47496 7.18214 6.59596 7.72435 6.82695C8.22397 7.03594 8.69805 7.29443 9.14374 7.59967L10.7874 5.56474C10.6256 5.42175 10.4553 5.287 10.2764 5.16326C9.9528 4.94602 9.60647 4.76177 9.2431 4.61328C8.78038 4.42628 8.29778 4.28054 7.80667 4.17879C7.20769 4.05505 6.59451 3.99455 5.98133 4.00005C5.21202 3.9863 4.44271 4.09629 3.7103 4.32454C3.11415 4.51428 2.56343 4.81952 2.09219 5.22101C1.66637 5.59224 1.32855 6.04873 1.10429 6.55746C0.874347 7.07994 0.760796 7.64092 0.763635 8.2074C0.752279 8.68314 0.854476 9.15337 1.06738 9.58236C1.26894 9.96734 1.54146 10.3111 1.87076 10.5998C2.21426 10.8996 2.59465 11.1526 3.00628 11.3533C3.4179 11.5595 3.8494 11.7328 4.28941 11.873L5.07008 12.1178C5.65771 12.291 6.21979 12.5303 6.7478 12.8327C7.14523 13.0417 7.39505 13.4405 7.40072 13.8777C7.40924 14.1059 7.34679 14.3314 7.2162 14.5239C7.09981 14.6862 6.94652 14.8182 6.76767 14.9117C6.58315 15.0052 6.38444 15.0712 6.17721 15.1069C5.97849 15.1427 5.7741 15.1592 5.57254 15.1592C4.82026 15.1647 4.07934 14.9997 3.40655 14.6752C2.89273 14.4277 2.41581 14.1169 1.98715 13.7512L0 16.0666C0.647244 16.6194 1.39101 17.0538 2.19722 17.3536C3.30435 17.7303 4.47109 17.9091 5.64351 17.8788C6.37592 17.8816 7.10265 17.7798 7.80099 17.5708C8.42837 17.3893 9.01884 17.1006 9.54401 16.7184C10.0238 16.3664 10.4212 15.9236 10.7108 15.4149Z" fill="white"/>
<path d="M14.0693 16.9907C14.3645 17.2739 14.7222 17.4884 15.114 17.6149C15.554 17.7552 16.0139 17.8239 16.4766 17.8184C16.681 17.8129 16.8825 17.7882 17.0841 17.7497C17.3339 17.7057 17.578 17.6424 17.8136 17.5572C18.072 17.4664 18.319 17.3454 18.5489 17.1997C18.7845 17.0484 18.9974 16.8614 19.1763 16.6497L19.4857 16.2867L19.6475 17.5544H22.6822V8.38074H19.5595V13.3141C19.5595 13.5313 19.5311 13.7486 19.48 13.9603C19.4261 14.1803 19.3296 14.3865 19.1961 14.5708C19.057 14.7605 18.8725 14.9145 18.6596 15.0218C18.4098 15.1373 18.1344 15.195 17.8591 15.1868C17.2686 15.1868 16.8456 15.0135 16.6043 14.6698C16.3602 14.2958 16.241 13.8585 16.2608 13.4158V8.38074H13.1382V14.2298C13.124 14.7908 13.2148 15.349 13.3993 15.8797C13.5384 16.2922 13.7655 16.6717 14.0693 16.9907Z" fill="white"/>
<path d="M46.346 13.3333C46.363 12.5386 46.2438 11.7439 45.9883 10.9877C45.7782 10.3772 45.4376 9.8162 44.9919 9.33772C44.5802 8.91148 44.0721 8.58149 43.51 8.36975C42.9281 8.15251 42.3064 8.04251 41.6818 8.04801C40.9267 8.03151 40.1801 8.17726 39.4903 8.47425C38.897 8.73824 38.369 9.12048 37.9403 9.59621C37.5287 10.0582 37.2193 10.5972 37.0234 11.1774C36.8218 11.7631 36.7168 12.3791 36.7168 12.9978C36.7168 14.5378 37.1852 15.7477 38.105 16.592C39.0247 17.4362 40.376 17.8707 42.1446 17.8707C42.5988 17.8707 43.0501 17.8349 43.4987 17.7607C43.8876 17.6947 44.2737 17.6094 44.6512 17.5022C44.9521 17.4197 45.2445 17.3179 45.5312 17.1997C45.7016 17.1227 45.8549 17.0512 45.9854 16.9825L45.0515 15.107C44.725 15.261 44.3872 15.3875 44.0409 15.4893C43.4873 15.646 42.9139 15.7257 42.3376 15.7202C41.9231 15.7285 41.5087 15.679 41.1084 15.569C40.8047 15.4865 40.5236 15.3435 40.2766 15.1538C40.0808 14.9998 39.9246 14.8018 39.8196 14.579C39.7373 14.3975 39.6862 14.2051 39.6691 14.0071L39.6493 13.7898H46.3573L46.346 13.3333ZM43.6094 12.1509H39.6777V11.9474C39.6777 11.7466 39.7202 11.5486 39.7969 11.3644C39.8792 11.1609 39.9984 10.9739 40.1517 10.8144C40.3249 10.6357 40.535 10.4899 40.7649 10.3882C41.0374 10.2699 41.3355 10.2122 41.6336 10.2177C41.9373 10.2094 42.2382 10.2699 42.5136 10.3909C42.7407 10.4927 42.9451 10.6357 43.1183 10.8089C43.2772 10.9657 43.405 11.1527 43.4901 11.3589C43.5668 11.5431 43.6065 11.7411 43.6094 11.9419V12.1509Z" fill="white"/>
<path d="M81.7002 4.35754H83.8832L88.0279 15.1977L92.1753 4.35754H94.2477L88.9789 17.5571H86.9917L81.7002 4.35754Z" fill="white"/>
<path d="M95.668 4.71509H97.7289V6.71152H95.668V4.71509ZM95.79 8.35321H97.6267V17.5516H95.79V8.35321Z" fill="white"/>
<path d="M100.854 15.2389C101.206 15.5744 101.621 15.8439 102.078 16.0281C102.603 16.2344 103.165 16.3361 103.733 16.3251C104.258 16.3444 104.78 16.2509 105.263 16.0501C105.649 15.9044 105.899 15.5414 105.887 15.1399C105.893 14.9474 105.848 14.7577 105.754 14.5899C105.643 14.4194 105.49 14.2764 105.305 14.1829C105.036 14.0427 104.749 13.9327 104.454 13.8584C104.108 13.7594 103.676 13.6494 103.157 13.5312C102.785 13.4515 102.421 13.3442 102.066 13.215C101.717 13.0885 101.391 12.9125 101.096 12.6897C100.812 12.4752 100.576 12.2057 100.4 11.9005C100.216 11.554 100.125 11.169 100.136 10.7813C100.128 10.3688 100.235 9.96182 100.451 9.60434C100.667 9.26335 100.959 8.97461 101.303 8.75461C101.669 8.51812 102.072 8.33938 102.498 8.22938C102.946 8.10839 103.409 8.05064 103.875 8.05064C104.579 8.03689 105.28 8.14139 105.947 8.35863C106.506 8.55387 107.023 8.84536 107.469 9.22485L106.469 10.4513C106.151 10.1818 105.788 9.96732 105.396 9.81883C104.919 9.63733 104.408 9.54934 103.895 9.56034C103.406 9.53834 102.918 9.63183 102.475 9.83533C102.126 10.0086 101.919 10.3661 101.944 10.7455C101.944 11.1415 102.18 11.433 102.648 11.6255C103.247 11.8565 103.866 12.0408 104.496 12.1755C104.922 12.2717 105.342 12.3955 105.751 12.5412C106.117 12.6677 106.464 12.8465 106.773 13.0747C107.063 13.2892 107.301 13.5614 107.469 13.8749C107.647 14.2324 107.735 14.6257 107.724 15.0216C107.733 15.4479 107.619 15.8714 107.398 16.2399C107.176 16.5918 106.875 16.8943 106.518 17.1198C106.129 17.3646 105.703 17.5461 105.252 17.6533C104.763 17.7743 104.264 17.8321 103.761 17.8321C101.964 17.8321 100.619 17.3646 99.7188 16.4269L100.854 15.2389Z" fill="white"/>
<path d="M109.836 4.71509H111.9V6.71152H109.836V4.71509ZM109.961 8.35321H111.798V17.5516H109.961V8.35321Z" fill="white"/>
<path d="M118.985 17.8293C118.292 17.8376 117.602 17.7056 116.964 17.4443C116.368 17.1941 115.828 16.8311 115.38 16.3746C114.937 15.9236 114.582 15.3984 114.338 14.8209C113.835 13.6082 113.835 12.2553 114.338 11.0426C114.585 10.4706 114.937 9.94809 115.38 9.49985C115.828 9.04887 116.365 8.68863 116.958 8.44389C118.247 7.92691 119.692 7.92691 120.981 8.44389C121.58 8.68863 122.125 9.04887 122.579 9.49985C124.489 11.4165 124.489 14.4579 122.579 16.3746C122.125 16.8256 121.585 17.1858 120.986 17.4333C120.353 17.6973 119.672 17.8321 118.985 17.8293ZM118.985 16.2866C119.442 16.2976 119.896 16.2041 120.311 16.0116C120.694 15.8301 121.034 15.5744 121.313 15.2609C121.591 14.9419 121.801 14.5734 121.934 14.1747C122.079 13.776 122.15 13.358 122.15 12.9372C122.15 12.522 122.076 12.1123 121.934 11.7218C121.798 11.3258 121.582 10.9601 121.301 10.6438C121.023 10.3276 120.685 10.0691 120.302 9.88209C119.893 9.6896 119.439 9.5961 118.985 9.6071C118.525 9.5961 118.071 9.6896 117.656 9.88209C117.273 10.0636 116.935 10.3193 116.657 10.6328C116.382 10.9491 116.169 11.312 116.033 11.7025C115.891 12.0985 115.82 12.5165 115.82 12.9372C115.82 13.3552 115.891 13.7705 116.033 14.1637C116.174 14.5569 116.393 14.9227 116.674 15.2389C116.952 15.5551 117.293 15.8109 117.676 15.9979C118.082 16.1931 118.531 16.2921 118.985 16.2866Z" fill="white"/>
<path d="M126.09 17.5516V9.30193C126.09 8.99669 126.09 8.68045 126.07 8.35046H127.825L127.887 9.72541C128.009 9.56592 128.171 9.39267 128.336 9.20018C128.529 8.99944 128.747 8.82344 128.989 8.6777C129.272 8.50721 129.579 8.37246 129.9 8.28171C130.28 8.16897 130.675 8.11672 131.072 8.12222C132.31 8.12222 133.23 8.47146 133.829 9.16993C134.428 9.86841 134.729 10.8171 134.729 12.0188V17.5516H132.889V12.1728C132.889 11.3149 132.699 10.6851 132.321 10.2836C131.901 9.86291 131.311 9.64292 130.709 9.67866C129.82 9.63467 128.983 10.0747 128.534 10.8171C128.313 11.1746 128.154 11.5651 128.072 11.9748C127.975 12.4066 127.927 12.8466 127.927 13.2893V17.5516H126.09Z" fill="white"/>
<path d="M135.748 6.85173C135.578 6.85173 135.405 6.82423 135.246 6.76373C135.095 6.70873 134.959 6.62624 134.842 6.51899C134.729 6.41449 134.638 6.28525 134.581 6.14225C134.519 5.98551 134.488 5.81777 134.49 5.65002C134.49 5.48228 134.519 5.31453 134.584 5.15779C134.641 5.01479 134.729 4.88555 134.842 4.78105C134.959 4.6793 135.098 4.60231 135.246 4.55006C135.405 4.48956 135.575 4.45931 135.748 4.46206C135.924 4.45656 136.097 4.48681 136.262 4.55006C136.409 4.60506 136.546 4.68755 136.659 4.7948C136.773 4.90205 136.861 5.02854 136.92 5.17154C136.977 5.32553 137.006 5.48778 137 5.65002C137 5.81777 136.972 5.98551 136.906 6.14225C136.847 6.2825 136.759 6.41174 136.645 6.51899C136.532 6.62624 136.395 6.70873 136.248 6.76373C136.089 6.82423 135.918 6.85173 135.748 6.85173ZM135.748 6.59599C135.881 6.59599 136.012 6.57399 136.137 6.52724C136.25 6.48324 136.353 6.41724 136.438 6.33475C136.526 6.2495 136.594 6.1505 136.637 6.03776C136.685 5.91401 136.71 5.78202 136.708 5.65002C136.708 5.51803 136.685 5.38603 136.637 5.26228C136.591 5.14954 136.526 5.04779 136.438 4.96254C136.353 4.88005 136.25 4.81405 136.137 4.7728C136.012 4.72605 135.881 4.7013 135.748 4.70405C135.612 4.70405 135.478 4.72605 135.353 4.7728C135.118 4.8553 134.93 5.03404 134.842 5.26228C134.797 5.38603 134.777 5.51803 134.78 5.65002C134.777 5.78202 134.797 5.91401 134.842 6.03776C134.885 6.1505 134.953 6.2495 135.041 6.33475C135.129 6.41724 135.231 6.48324 135.345 6.52724C135.473 6.57674 135.609 6.59874 135.748 6.59599ZM135.314 5.02304H135.813C135.915 5.02304 136.018 5.05604 136.097 5.11929C136.177 5.19079 136.216 5.28978 136.211 5.39428C136.214 5.47128 136.194 5.54827 136.148 5.61152C136.106 5.66652 136.052 5.71327 135.986 5.74077L136.296 6.2H136.012L135.748 5.77652H135.572V6.2H135.325L135.314 5.02304ZM135.731 5.57302C135.791 5.57302 135.85 5.56202 135.901 5.53178C135.95 5.49878 135.975 5.44378 135.967 5.38603C135.972 5.33378 135.95 5.28428 135.907 5.25403C135.87 5.22379 135.822 5.21004 135.774 5.21004H135.561V5.58127L135.731 5.57302Z" fill="white"/>
</g>
<defs>
<clipPath id="clip0_4211_46528">
<rect width="137" height="32.9494" fill="white" transform="translate(0 4)"/>
</clipPath>
</defs>
</svg>
