<svg width="186" height="40" viewBox="0 0 186 40" fill="none" xmlns="http://www.w3.org/2000/svg">
<path fill-rule="evenodd" clip-rule="evenodd" d="M19.7227 12.4227H24.5172V13.0594C23.2194 13.1376 23.0987 13.3743 23.0987 14.4017V22.9201C23.0987 24.7586 24.1576 25.7079 25.6349 25.7079C27.3347 25.7079 28.3724 24.6403 28.3724 22.8822V14.6C28.3724 13.572 28.054 13.1382 26.8333 13.06V12.4233H30.6626V13.06C29.4454 13.1382 29.1246 13.572 29.1246 14.6V22.4461C29.1246 24.8957 28.0334 26.3417 25.2565 26.3417C22.4796 26.3417 21.1423 24.8373 21.1423 22.365V14.4023C21.1423 13.3749 21.0234 13.1382 19.7227 13.06V12.4233V12.4227ZM30.373 26.0222V25.3866C31.3318 25.3452 31.6514 24.9895 31.6514 24.3948V18.2082C31.6514 17.3533 31.4124 17.2146 30.3336 17.1726V16.5586L33.2488 16.4291V18.3458H33.2894C33.8279 17.2373 34.6078 16.3253 35.968 16.3253C37.626 16.3253 38.4053 17.3959 38.4053 19.137V24.3983C38.4053 25.0682 38.6837 25.3452 39.6419 25.3866V26.0222H36.689V18.9796C36.689 17.6729 36.1887 17.2373 35.5078 17.2373C34.4501 17.2373 33.3689 18.6221 33.3689 20.5609V24.3983C33.3689 24.9895 33.6879 25.3452 34.6467 25.3866V26.0222H30.373ZM43.0845 13.4979C43.0845 14.2484 42.6643 14.7632 42.0633 14.7632C41.4624 14.7632 41.0433 14.2489 41.0433 13.4979C41.0433 12.7469 41.4648 12.2314 42.0633 12.2314C42.6619 12.2314 43.0845 12.744 43.0845 13.4979ZM40.0898 26.0222V25.3866C41.048 25.3452 41.3653 24.9895 41.3653 24.3948V18.0991C41.3653 17.2478 41.1269 17.1084 40.0898 17.0688V16.4286L43.0845 16.3207V24.3942C43.0845 24.9889 43.4053 25.3446 44.3623 25.386V26.0216H40.0892L40.0898 26.0222ZM47.4477 12.9154V16.5586H49.8526V17.3032H47.4477V24.2817C47.4477 25.1557 47.7478 25.512 48.2905 25.512C48.9521 25.512 49.4518 25.0945 49.4518 22.993V22.4391H50.0957V23.3709C50.0957 25.3738 49.3547 26.2578 47.8491 26.2578C46.5277 26.2578 45.7325 25.4333 45.7325 23.8449V17.3032H44.4918V16.7149C45.9309 16.123 46.689 15.4484 46.8096 12.9154H47.4477ZM58.2681 21.2268C58.2681 18.3831 56.8696 16.3253 54.656 16.3253C52.4423 16.3253 50.8026 18.3831 50.8026 21.2851C50.8026 23.765 52.4406 26.2578 54.915 26.2578C57.1492 26.2578 58.1298 24.5411 58.3105 22.772L57.6695 22.6537C57.4688 24.0041 56.8502 25.512 55.1145 25.512C53.7772 25.512 52.7602 24.0041 52.7602 21.2268H58.2681ZM52.7608 20.4816C52.7608 17.9475 53.5183 16.958 54.6566 16.958C55.7142 16.958 56.3122 17.9475 56.3122 20.4816H52.7608ZM63.7007 13.0384C64.7372 13.0787 64.9967 13.2145 64.9967 14.067V17.6227L64.9567 17.6414C64.5576 16.8717 63.8808 16.3207 62.9426 16.3207C60.8478 16.3207 59.2699 18.4531 59.2699 21.3248C59.2699 24.4309 60.9273 26.2572 62.7219 26.2572C63.9385 26.2572 64.5983 25.5598 65.035 24.6298H65.0774V26.0239L67.8719 25.9056V25.2782C67.075 25.2933 66.7142 24.9802 66.7142 23.9079V12.2938L63.7001 12.421V13.039L63.7007 13.0384ZM61.2286 21.344C61.2286 18.2956 61.9444 17.0688 63.0432 17.0688C64.2581 17.0688 64.9967 18.5341 64.9967 21.344C64.9967 24.7493 63.9379 25.6181 62.882 25.6181C61.8855 25.6181 61.2286 24.3913 61.2286 21.344ZM68.3693 26.0222V25.3866C69.5688 25.3067 69.7695 25.0682 69.7695 24.0368V14.3976C69.7695 13.3743 69.5688 13.1364 68.3693 13.0594V12.4227H73.2009V13.0594C71.9655 13.137 71.7259 13.3743 71.7259 14.3976V18.4962H76.0337V14.3976C76.0337 13.3743 75.7913 13.1364 74.5564 13.0594V12.4227H79.3857V13.0594C78.1891 13.137 77.9878 13.3743 77.9878 14.3976V24.0368C77.9878 25.0682 78.1891 25.3061 79.3857 25.3866V26.0222H74.5564V25.3866C75.7913 25.3067 76.0337 25.0682 76.0337 24.0368V19.2426H71.7259V24.0368C71.7259 25.0682 71.9655 25.3061 73.2009 25.3866V26.0222H68.3693ZM87.1479 21.2268C87.1479 18.3831 85.7506 16.3253 83.5358 16.3253C81.321 16.3253 79.6812 18.3831 79.6812 21.2851C79.6812 23.765 81.3186 26.2578 83.7953 26.2578C86.0284 26.2578 87.0102 24.5411 87.1873 22.772L86.5481 22.6537C86.348 24.0041 85.7294 25.512 83.9943 25.512C82.657 25.512 81.6394 24.0041 81.6394 21.2268H87.1485H87.1479ZM81.6388 20.4816C81.6388 17.9475 82.3957 16.958 83.5352 16.958C84.5935 16.958 85.1915 17.9475 85.1915 20.4816H81.6388ZM94.9989 23.2898C94.9577 24.7149 94.8 25.1499 94.421 25.1499C94.1455 25.1499 94.0042 24.8922 94.0042 24.3207V18.8175C94.0042 17.3353 93.1443 16.3248 90.9101 16.3248C89.1732 16.3248 87.8942 17.3953 87.8942 18.7399C87.8942 19.5306 88.2938 19.9289 88.8542 19.9289C89.4145 19.9289 89.8536 19.4915 89.8536 18.7802C89.8536 18.2052 89.6529 17.73 89.0125 17.6729C89.4333 17.1761 90.0107 16.958 90.71 16.958C91.7676 16.958 92.2879 17.4536 92.2879 18.5819V20.2041C90.5681 20.8408 87.4204 21.7714 87.4204 24.0263C87.4204 25.3347 88.3139 26.2572 89.8471 26.2572C91.245 26.2572 91.8465 25.6076 92.3256 24.719H92.3662C92.4857 25.7843 93.0248 26.2572 93.983 26.2572C95.2185 26.2572 95.6405 25.3732 95.6405 23.2945L94.9989 23.2892V23.2898ZM92.2879 22.0875C92.2879 24.3242 91.3668 25.5114 90.348 25.5114C89.73 25.5114 89.2509 24.9977 89.2509 23.9475C89.2509 22.2642 90.6876 21.5137 92.2879 20.958V22.0881V22.0875ZM95.3768 26.0222V25.3866C96.3356 25.3452 96.6564 24.9895 96.6564 24.3983V14.1067C96.6564 13.4326 96.3156 13.0793 95.3374 13.039V12.4087L98.3715 12.2944V24.3989C98.3715 24.9901 98.6923 25.3458 99.6505 25.3872V26.0228H95.3768V26.0222ZM102.542 12.9154V16.5586H104.951V17.3032H102.542V24.2817C102.542 25.1557 102.844 25.512 103.384 25.512C104.049 25.512 104.549 25.0945 104.549 22.993V22.4391H105.19V23.3709C105.19 25.3738 104.448 26.2578 102.944 26.2578C101.625 26.2578 100.826 25.4333 100.826 23.8449V17.3032H99.5887V16.7149C101.025 16.123 101.784 15.4484 101.906 12.9154H102.542ZM105.118 26.0222V25.3866C106.075 25.3452 106.399 24.9895 106.399 24.3983V14.067C106.399 13.2151 106.157 13.0787 105.077 13.0384V12.4204L108.112 12.2933V18.1073H108.154C108.553 17.2367 109.313 16.3248 110.653 16.3248C112.191 16.3248 113.15 17.3953 113.15 19.1364V24.3977C113.15 24.9889 113.49 25.3446 114.387 25.386V26.0216H111.432V19.0752C111.432 17.6939 110.931 17.2367 110.211 17.2367C109.213 17.2367 108.112 18.5423 108.112 20.4414V24.3977C108.112 24.9889 108.433 25.3446 109.393 25.386V26.0216H105.117L105.118 26.0222ZM121.814 22.74C121.633 24.6105 120.756 26.284 118.554 26.284C116.527 26.284 114.655 24.4887 114.655 21.5609C114.655 19.0834 116.386 16.2979 118.799 16.2979C120.5 16.2979 121.572 17.3458 121.572 18.8869C121.572 19.8344 121.274 20.3487 120.559 20.3487C120.001 20.3487 119.623 19.8723 119.623 19.1627C119.623 18.3131 119.922 17.9761 120.437 17.9761C120.577 17.9761 120.657 18.0361 120.739 18.056L120.776 18.0175C120.48 17.2845 119.842 16.9207 119.101 16.9207C117.611 16.9207 116.606 18.4128 116.606 21.2239C116.606 24.5732 117.651 25.5254 118.818 25.5254C120.438 25.5254 120.957 24.0537 121.176 22.6554L121.815 22.74H121.814ZM130.101 23.3143C130.06 24.7545 129.905 25.1965 129.523 25.1965C129.247 25.1965 129.105 24.9359 129.105 24.3551V18.8017C129.105 17.2997 128.245 16.2979 125.987 16.2979C124.235 16.2979 122.962 17.3603 122.962 18.7184C122.962 19.5201 123.361 19.9189 123.916 19.9189C124.472 19.9189 124.911 19.4793 124.911 18.7586C124.911 18.1778 124.714 17.6979 124.075 17.6385C124.494 17.1405 125.075 16.9201 125.782 16.9201C126.855 16.9201 127.382 17.4181 127.382 18.5598V20.1982C125.652 20.8227 122.483 21.7639 122.483 24.0344C122.483 25.3475 123.382 26.284 124.927 26.284C126.335 26.284 126.939 25.6257 127.421 24.7289H127.463C127.583 25.8053 128.122 26.284 129.085 26.284C130.316 26.284 130.727 25.3901 130.727 23.2945L130.101 23.3143H130.101ZM127.383 22.0805C127.383 24.3306 126.458 25.5254 125.432 25.5254C124.807 25.5254 124.324 25.0117 124.324 23.9534C124.324 22.2589 125.772 21.5026 127.383 20.944V22.0811L127.383 22.0805ZM130.977 26.0338V25.414C131.817 25.3755 132.138 25.0164 132.138 24.4169V19.0029C132.138 17.6495 131.896 17.2111 130.895 17.1726V16.5312L133.659 16.414V18.7125H133.699C133.959 17.677 134.671 16.2979 135.863 16.2979C136.602 16.2979 137.322 16.8991 137.322 18.0169C137.322 18.874 136.904 19.3114 136.383 19.3114C135.944 19.3114 135.482 19.0338 135.482 18.137C135.482 17.6583 135.763 17.1598 136.341 17.1598C136.244 17.0006 136.042 16.9201 135.824 16.9201C134.474 16.9388 133.86 19.8519 133.86 21.5837V24.4169C133.86 25.0146 134.177 25.3755 135.524 25.414V26.0338H130.978H130.977ZM144.79 21.2542C144.79 18.3668 143.399 16.2979 141.175 16.2979C138.952 16.2979 137.322 18.3668 137.322 21.3137C137.322 23.7878 138.953 26.284 141.436 26.284C143.679 26.284 144.65 24.5592 144.827 22.7994L144.202 22.6764C144.002 24.0251 143.38 25.5254 141.637 25.5254C140.292 25.5254 139.271 24.0251 139.271 21.2548H144.79V21.2542ZM139.271 20.4968C139.271 17.9248 140.032 16.9201 141.175 16.9201C142.237 16.9201 142.84 17.9248 142.84 20.4968H139.271ZM145.229 14.7761H145.588C145.775 14.7761 145.836 14.9131 145.836 15.0367C145.836 15.1866 145.758 15.3119 145.588 15.3119H145.229V14.7761ZM145.229 15.5312H145.507C145.588 15.5312 145.744 15.5405 145.766 15.7236C145.784 15.9533 145.771 16.1743 145.836 16.2927H146.111C146.071 16.1842 146.046 15.9201 146.04 15.8455C146.032 15.5038 145.956 15.4361 145.74 15.4146V15.407C145.96 15.3667 146.113 15.2122 146.113 15.0099C146.113 14.8076 145.964 14.5877 145.634 14.5877H144.949V16.2933H145.229V15.5323V15.5312ZM145.511 13.9562C144.684 13.9562 144.012 14.614 144.012 15.4309C144.009 16.249 144.677 16.9143 145.503 16.9172C145.505 16.9172 145.508 16.9172 145.511 16.9172C146.331 16.9172 147 16.2595 147 15.4309C147 14.6163 146.333 13.9562 145.511 13.9562ZM145.511 14.1772C146.21 14.1755 146.777 14.7347 146.779 15.4268C146.779 15.4297 146.779 15.4326 146.779 15.4355C146.779 16.137 146.218 16.6962 145.511 16.6962C144.81 16.6997 144.239 16.1388 144.235 15.4437C144.235 15.4408 144.235 15.4379 144.235 15.435C144.235 14.7393 144.805 14.1766 145.511 14.1766V14.1772Z" fill="white"/>
<path fill-rule="evenodd" clip-rule="evenodd" d="M4.65087 28.4777C4.06406 28.3424 3.51786 27.8433 3.30715 27.2783C2.6862 27.1768 2.15824 26.6649 1.93164 25.9891C1.93811 25.9891 1.94224 25.9891 1.94871 25.9908L4.09467 26.231C4.93398 25.9214 6.13645 24.9663 6.80154 22.6071C7.27182 20.9377 7.3395 18.4205 7.3395 15.547V4.40002L6.00343 4.10614L8.5402 2.7592V16.659C8.5402 19.1441 8.44191 21.343 7.91454 23.1103C7.58847 24.3879 6.21826 26.9955 3.84334 27.3086L5.51903 27.5068C7.04168 27.1348 8.29064 25.7681 8.9834 24.006C9.77445 21.9564 9.90453 19.2176 9.90453 15.9867V3.06066L8.5402 2.75861L11.1188 1.39126V16.5575C11.1188 20.3593 10.7126 22.999 9.87451 24.8573C9.29182 26.1115 7.67323 28.5057 5.20002 28.5278L7.11878 28.7558C8.59553 28.5034 10.147 27.2824 11.0705 25.3908C12.0581 23.371 12.5119 20.375 12.5119 15.9867V1.69797L11.1194 1.39184L13.7368 0V16.1045C13.7368 22.1371 12.8092 26.6066 9.88922 28.6124C8.96162 29.2281 7.98753 29.743 6.79507 29.6934C5.91808 29.6561 5.11409 29.2544 4.65087 28.4771V28.4777Z" fill="white"/>
<path fill-rule="evenodd" clip-rule="evenodd" d="M2.3343 26.0221H2.32783H2.36432C2.37609 26.0221 2.38374 26.0221 2.39669 26.0192C2.40905 26.0192 2.42024 26.0192 2.4326 26.0192C2.44496 26.0192 2.45614 26.0192 2.46791 26.0162C2.48027 26.0162 2.49204 26.0151 2.50381 26.0151C2.51853 26.0116 2.5303 26.0116 2.54501 26.011C2.55561 26.0098 2.56856 26.0075 2.57739 26.0058C2.59504 26.0028 2.60976 26.0023 2.62624 25.9988C2.63742 25.9988 2.64684 25.9958 2.65861 25.9953C2.67803 25.9935 2.69451 25.9883 2.71099 25.9859C2.721 25.9848 2.73042 25.9824 2.74101 25.9807C2.76161 25.9754 2.77927 25.9731 2.79869 25.9696C2.81105 25.9667 2.82047 25.9626 2.83283 25.9603C2.85108 25.9562 2.87168 25.9521 2.89286 25.9469C2.90287 25.9428 2.91346 25.9399 2.92465 25.9375C2.9476 25.9311 2.96703 25.9265 2.98939 25.9189C2.99763 25.9142 3.0094 25.9113 3.02235 25.9066C3.04295 25.9008 3.0665 25.8932 3.0871 25.885C3.09769 25.881 3.1077 25.8751 3.11947 25.8716C3.14007 25.8658 3.16479 25.8553 3.18715 25.8448C3.19951 25.8413 3.21129 25.8361 3.22247 25.8291C3.24483 25.8203 3.26897 25.8087 3.29369 25.7982C3.30252 25.7935 3.31546 25.7871 3.32665 25.7824C3.34901 25.7702 3.37314 25.7568 3.39845 25.7439C3.41023 25.7399 3.42141 25.7329 3.43083 25.7241C3.45555 25.7136 3.48203 25.6973 3.50557 25.6845C3.51676 25.6769 3.52735 25.6711 3.53854 25.6641C3.56326 25.6477 3.59092 25.6332 3.61564 25.6168C3.62564 25.6087 3.63742 25.5999 3.6486 25.5918C3.67509 25.5748 3.70039 25.5568 3.72453 25.5369C3.73747 25.5294 3.74925 25.5206 3.76102 25.5113C3.78515 25.4915 3.81105 25.4734 3.83753 25.4524C3.8493 25.4425 3.86108 25.432 3.87049 25.4221C3.89757 25.4017 3.92347 25.3807 3.94701 25.3585C3.95996 25.3463 3.97173 25.3346 3.98291 25.3235C4.01058 25.3008 4.03471 25.278 4.06002 25.2541C4.07414 25.2413 4.08709 25.2279 4.09886 25.2133C4.12476 25.1883 4.14713 25.1649 4.17185 25.1387C4.18774 25.1235 4.20304 25.106 4.21599 25.0897C4.23953 25.0646 4.26249 25.039 4.28426 25.011C4.29898 24.9964 4.31193 24.9789 4.32782 24.9597C4.35136 24.9311 4.37432 24.9055 4.39727 24.874C4.41081 24.8559 4.42493 24.8372 4.43788 24.8197C4.4626 24.7865 4.48438 24.7573 4.50792 24.727C4.52205 24.7066 4.53735 24.6845 4.55089 24.6635C4.57326 24.6302 4.59268 24.5993 4.61563 24.5655C4.63094 24.5434 4.64683 24.5165 4.66213 24.4932C4.68273 24.4588 4.70333 24.4285 4.72452 24.3923C4.74041 24.3667 4.75454 24.3416 4.76749 24.3159C4.78868 24.2792 4.81045 24.2419 4.83223 24.2069C4.84695 24.1766 4.85931 24.1486 4.87343 24.1229C4.89403 24.0845 4.91581 24.0466 4.93464 24.0052C4.95171 23.9743 4.96584 23.9399 4.98232 23.9084C4.99998 23.8705 5.01999 23.832 5.03765 23.7929C5.05413 23.7562 5.07002 23.7189 5.0865 23.6798C5.10239 23.6419 5.12005 23.604 5.1377 23.5638C5.15301 23.5259 5.16654 23.4897 5.18361 23.4483C5.19892 23.4046 5.21716 23.3643 5.23423 23.32C5.24718 23.2833 5.26307 23.2419 5.27602 23.2017C5.29309 23.155 5.3131 23.1101 5.32781 23.0623C5.34665 23.0081 5.36372 22.9492 5.38255 22.8938C5.39315 22.8588 5.4061 22.825 5.41787 22.7894C5.44671 22.6949 5.47496 22.5982 5.5038 22.499C5.9005 21.0815 6.00056 18.2121 6.00056 16.3037V4.10535L0 7.29079V19.8605C0 24.6553 0.86992 25.8028 1.94702 25.9906C1.94054 25.9888 1.93642 25.9888 1.92995 25.9888L2.33371 26.0221H2.3343Z" fill="white"/>
</svg>
